
<svg version="1.0" xmlns="http://www.w3.org/2000/svg"
 width="4376.000000pt" height="4162.000000pt" viewBox="0 0 4376.000000 4162.000000"
 preserveAspectRatio="xMidYMid meet">

<g transform="translate(0.000000,4162.000000) scale(0.100000,-0.100000)"
fill="#000000" stroke="none">
<path d="M8321 41498 c-22 -68 -1721 -5296 -3775 -11618 -2054 -6322 -3916
-12052 -4137 -12733 -278 -857 -400 -1243 -393 -1252 16 -25 21856 -15886
21868 -15883 26 6 21866 15882 21866 15894 0 10 -8110 24981 -8311 25592 l-41
122 -13518 0 -13518 0 -41 -122z m22293 -6675 c284 -860 5316 -16370 5314
-16380 -3 -11 -14035 -10212 -14048 -10212 -13 0 -14045 10201 -14048 10212
-2 10 5024 15502 5314 16380 l46 137 8688 0 8688 0 46 -137z"/>
<path d="M14126 18431 c26 -26 7746 -5631 7754 -5631 8 0 7728 5605 7755 5631
5 5 -3125 9 -7755 9 -4630 0 -7760 -4 -7754 -9z"/>
</g>
</svg>
