<svg xmlns="http://www.w3.org/2000/svg" viewBox="0 0 750 500"><g id="freepik--Floor--inject-126"><path d="M61.25,461.06c201-.61,426.49-.62,627.5,0-201,.62-426.49.61-627.5,0Z" style="fill:#263238"></path></g><g id="freepik--character-3--inject-126"><polygon points="369.05 354.23 299.47 462.02 294.51 462.02 369.05 348.33 369.05 354.23" style="fill:#FFC727"></polygon><polygon points="369.05 354.23 299.47 462.02 294.51 462.02 369.05 348.33 369.05 354.23" style="opacity:0.2"></polygon><polygon points="294.51 354.23 364.09 462.02 369.05 462.02 294.51 348.33 294.51 354.23" style="fill:#FFC727"></polygon><polygon points="294.51 354.23 364.09 462.02 369.05 462.02 294.51 348.33 294.51 354.23" style="opacity:0.2"></polygon><polygon points="399.76 354.23 330.19 462.02 325.23 462.02 399.76 348.33 399.76 354.23" style="fill:#FFC727"></polygon><polygon points="399.76 354.23 330.19 462.02 325.23 462.02 399.76 348.33 399.76 354.23" style="opacity:0.2"></polygon><polygon points="399.76 354.23 330.19 462.02 325.23 462.02 399.76 348.33 399.76 354.23" style="opacity:0.2"></polygon><polygon points="325.23 354.23 394.8 462.02 399.76 462.02 325.23 348.33 325.23 354.23" style="fill:#FFC727"></polygon><polygon points="325.23 354.23 394.8 462.02 399.76 462.02 325.23 348.33 325.23 354.23" style="opacity:0.2"></polygon><polygon points="325.23 354.23 394.8 462.02 399.76 462.02 325.23 348.33 325.23 354.23" style="opacity:0.2"></polygon><rect x="290.94" y="348.33" width="112.4" height="5.92" style="fill:#FFC727"></rect><g style="opacity:0.2"><rect x="290.94" y="348.33" width="112.4" height="5.92"></rect></g><g style="opacity:0.2"><rect x="323.98" y="348.33" width="79.36" height="5.92"></rect></g><rect x="260.2" y="309.1" width="73.24" height="5.41" transform="translate(-14.98 608.63) rotate(-90)" style="fill:#FFC727"></rect><g style="opacity:0.2"><rect x="260.2" y="309.1" width="73.24" height="5.41" transform="translate(-14.98 608.63) rotate(-90)"></rect></g><rect x="330.39" y="309.01" width="73.24" height="5.41" transform="translate(55.3 678.72) rotate(-90)" style="fill:#FFC727"></rect><g style="opacity:0.2"><rect x="330.39" y="309.01" width="73.24" height="5.41" transform="translate(55.3 678.72) rotate(-90)"></rect></g><rect x="293.27" y="279.24" width="76.69" height="39.42" style="fill:#263238"></rect><path d="M410.55,461.93c-2.12,0-58.26-18.15-59.91-20.15-.2-.22,1.33-5.33,3.55-12.29l0-.14c1.39-4.42,18.49-38.55,18.49-38.55L409,404.09l-17.07,31.5s6.58,5.59,12.19,10.85v0a81.51,81.51,0,0,1,7,7C412.73,455.87,412.66,461.91,410.55,461.93Z" style="fill:#ad6359"></path><path d="M350.64,441.78c1.65,2,57.79,20.18,59.91,20.15s2.17-6.06.6-8.43a81.56,81.56,0,0,0-7-7l0,0c-2.14-2-4.43-4.08-6.44-5.86,6.88,7.7,10.61,18.68-42.73-12.87a14.38,14.38,0,0,0-.68,1.64l-.05.14C352,436.44,350.43,441.56,350.64,441.78Z" style="fill:#263238"></path><path d="M395.72,434.27l-40.11-11s31.24-69.2,30.13-72.65c-.75-2.31-50-1.33-64.71-14C305.78,323.59,316.8,297,316.8,297l41.38-1.18s-.51,8.66,1.11,10c1.06.88,57.77,4.54,69.09,25.1C438.65,349.52,395.72,434.27,395.72,434.27Z" style="fill:#37474f"></path><path d="M385.74,350.6c.19.58-.55,3.06-1.92,6.77l30.59,35.86c10-24.43,19.38-52.56,14-62.37-11.32-20.56-68-24.22-69.1-25.09-1.6-1.31-1.09-10-1.09-10l-26.27.75,44.91,52.61C382.1,349.62,385.55,350,385.74,350.6Z" style="fill:#263238"></path><path d="M396.51,425.82a23.84,23.84,0,0,0-3.27-1.13c-1.16-.37-2.32-.74-3.48-1.08-2.29-.68-4.59-1.33-6.9-1.92-4.66-1.2-9.32-2.38-14-3.45-2.44-.56-7.68-1.79-8-1.73a.18.18,0,0,0-.05.33c4.54,1.51,9.15,2.78,13.75,4.07s9.2,2.56,13.86,3.62c1.29.29,2.58.55,3.88.82a28.67,28.67,0,0,0,4.11.79C396.54,426.15,396.66,425.89,396.51,425.82Z" style="fill:#263238"></path><path d="M319.2,304.81c.1-1.39.22-2.77.35-4.15,0-.16.26-.17.25,0-.42,5.61-.86,11.35.3,16.91a24.13,24.13,0,0,0,7.71,13.22c8.39,7.47,19.92,9.46,30.66,11,6.16.9,12.34,1.56,18.54,2q4.56.35,9.12.52c3,.12,6,.07,9.05.17.95,0,1.81.45,1.69,1.54a7.85,7.85,0,0,1-.68,1.92l-.92,2.21c-1.15,2.77-2.3,5.52-3.46,8.28q-3.58,8.52-7.27,17-7.34,16.83-15.25,33.38l-2,4.11a.08.08,0,0,1-.14-.07q7.55-16.77,14.88-33.61c2.42-5.58,4.86-11.15,7.25-16.74q1.8-4.19,3.57-8.39.9-2.1,1.77-4.2c.3-.7.59-1.4.88-2.1s1.15-2,.49-2.51c-.44-.35-1.33-.21-1.85-.21l-2.4,0c-1.52,0-3-.05-4.57-.09q-4.62-.12-9.24-.41-9-.58-18-1.83c-10.67-1.46-22.28-3.12-30.95-10.06A25.63,25.63,0,0,1,320.55,321C318.81,315.81,318.83,310.21,319.2,304.81Z" style="fill:#263238"></path><path d="M499.1,407.29c-1.46,1.54-53.8,28.78-56.39,28.55-.3,0-2.86-4.69-6.27-11.15l-.06-.13c-2.18-4.09-21.82-38.43-21.82-38.43l32.55-17.44,20.15,33.4s8.6-.76,16.28-1.07h0a83.33,83.33,0,0,1,10-.09C496.31,401.49,500.57,405.78,499.1,407.29Z" style="fill:#ad6359"></path><path d="M436.05,424c.14.23.24.42.32.58l.07.13c3.41,6.47,6,11.15,6.27,11.16,2.59.22,54.93-27,56.39-28.56s-2.78-5.81-5.58-6.34a80.36,80.36,0,0,0-10,.08h0c-3.27.13-6.7.34-9.56.54C484.54,401.54,497.77,406.08,436.05,424Z" style="fill:#263238"></path><path d="M467,396.61l-39.26,20.77s-32.47-62.31-36-66.29c-4.66-5.31-63.54,3.71-77.88-13.45-14.82-17.75-3-40.5-3-40.5l44.95-1.07a37.54,37.54,0,0,1-2.17,12.34S405,304.15,419.86,318C431.27,328.55,467,396.61,467,396.61Z" style="fill:#37474f"></path><path d="M345.56,313.13a77.51,77.51,0,0,1,7.05-4.53,30.26,30.26,0,0,1,5.37-2.32c1.3-.34,1.87-.45.66.16l-3.27,1.64.69,0c.88-.06,1.77-.12,2.65-.16,1.73-.08,3.46-.11,5.19-.16,3.51-.1,7,.15,10.49.24.09,0,.09.15,0,.14-3.5,0-7,.24-10.49.31-1.73,0-3.46.12-5.19.19l-2.53.1a19.23,19.23,0,0,1-2.15.06l-.95.48c-2.52,1.25-5,2.56-7.44,4C345.57,313.28,345.49,313.18,345.56,313.13Z" style="fill:#263238"></path><path d="M356.85,294.37c-.41,2.13-.75,4.27-1.24,6.39-.22,1-.43,2-.74,2.91s-.68,1.72-1.57,1.94-1.38-.61-1.35-1.48.24-1.95.37-2.9c.16-1.11.32-2.21.45-3.32l.21-1.66c0-.14,0-1.19.11-1.5a.06.06,0,0,0,.06.05h0s.06,0,.06-.06a.13.13,0,0,0-.06-.15.09.09,0,0,0-.1,0c-.19.12-.19.4-.24.6-.14.55-.29,1.09-.41,1.63-.23,1-.46,2-.66,3.07s-.39,2.05-.58,3.08a4.8,4.8,0,0,0-.07,2.35,1.78,1.78,0,0,0,1.73,1.25l-.1.21c-.08.21-.13.44-.2.65s-.13.45-.18.67,0,.22,0,.33,0,.24,0,.36a.17.17,0,0,0,.33.1,3,3,0,0,1,.18-.3,1.55,1.55,0,0,0,.13-.36c.06-.22.11-.43.15-.65s.09-.43.12-.65,0-.26,0-.39a2.43,2.43,0,0,0,1.18-.53,4,4,0,0,0,1.15-2c.27-.89.46-1.81.66-2.72a39.63,39.63,0,0,0,1-6.85A.19.19,0,0,0,356.85,294.37Z" style="fill:#263238"></path><path d="M335.31,300.91c-.13,1-.19,2.11-.37,3.16s-.4,2.05-.67,3.06a11,11,0,0,1-1.13,2.78,10.28,10.28,0,0,1-1.92,2.19,17.6,17.6,0,0,1-4.78,3,23.41,23.41,0,0,1-2.7,1,14.52,14.52,0,0,1-1.45.34,3.16,3.16,0,0,0-1.17.34.24.24,0,0,0,.05.41,4.29,4.29,0,0,0,2.19-.06,15.47,15.47,0,0,0,2.31-.54,16.85,16.85,0,0,0,4.3-2.11,14,14,0,0,0,3.51-3.22,10.44,10.44,0,0,0,1.73-4.43,21.31,21.31,0,0,0,.3-5.91A.1.1,0,0,0,335.31,300.91Z" style="fill:#263238"></path><path d="M458.74,389.57a25.67,25.67,0,0,0-3.16,1.43c-1.09.53-2.19,1.06-3.27,1.61-2.13,1.08-4.25,2.18-6.34,3.34-4.21,2.32-8.41,4.67-12.55,7.11-2.16,1.27-6.81,4-7,4.23s.07.34.2.27c4.34-2,8.56-4.25,12.79-6.48s8.45-4.46,12.56-6.88c1.14-.67,2.26-1.37,3.39-2.06a29.75,29.75,0,0,0,3.53-2.26C459,389.8,458.89,389.52,458.74,389.57Z" style="fill:#263238"></path><path d="M311.14,307.6a.15.15,0,1,1,.3,0c.14,9.76,1.9,20.64,9.58,27.47,8.42,7.48,20.32,8.12,31,7.78,6.14-.19,12.27-.49,18.41-.44s12.41.21,18.55.85a10.09,10.09,0,0,1,6.36,2.87,32.52,32.52,0,0,1,4.31,5.89q4.8,7.56,9.33,15.31,9,15.39,16.71,31.46c.64,1.33,1.27,2.67,1.9,4,0,.09-.09.17-.14.08q-7.83-16.12-16.79-31.66-4.47-7.79-9.22-15.38c-1.49-2.39-2.93-4.83-4.58-7.1a11.13,11.13,0,0,0-5.74-4.58,23.51,23.51,0,0,0-4.59-.56c-1.57-.1-3.14-.2-4.71-.27-3.07-.16-6.14-.25-9.21-.29-6.19-.08-12.37.13-18.56.39-10.74.44-22.49.35-31.55-6.29A25.33,25.33,0,0,1,314,325.76a46.09,46.09,0,0,1-2.73-14.48C311.17,310.05,311.14,308.83,311.14,307.6Z" style="fill:#263238"></path><path d="M376.47,348.86c2.19,0,4.39,0,6.58.05a26.12,26.12,0,0,1,5.45.36c1.67.37,3,.54,4.39,2.37,1.75,2.27,11.4,19.89,15.45,27.69q1.7,3.24,3.33,6.51c1.13,2.26,2.14,4.57,3.26,6.82,0,.08-.08.16-.12.07-1-1.88-2.1-3.71-3.12-5.58s-2-3.75-3-5.63q-3-5.72-6.05-11.41c-2-3.76-4.42-7.42-6.45-11.17-1.71-3.15-4-7.45-5.62-8.06a25.46,25.46,0,0,0-6.82-1.49c-2.42-.12-4.84-.21-7.26-.36A.09.09,0,0,1,376.47,348.86Z" style="fill:#263238"></path><path d="M345.35,256c5.48,17,20.07,46,28.68,40.14,12.86-8.69,23.26-29.9,27.4-38.49,2.32-4.81-21.14-15.85-23.21-11.48-2.93,6.21-9,19.17-11.24,20.86-1.18.89-8.22-11.76-13.93-18C344.82,240,343.6,250.52,345.35,256Z" style="fill:#ad6359"></path><path d="M408.4,246.64c-1.78,5.09-9.48,14.09-12.18,15.54s-18.54-10.65-18.48-13.79,7.48-20.31,12.14-23.23S410.24,241.36,408.4,246.64Z" style="fill:#ad6359"></path><path d="M378.6,244.84a44.71,44.71,0,0,0-2.48-12.76c-1.89-4.84-5.25-11.81-2.68-12.93,5.26-2.29,13.63,15.1,13.63,15.1s2.46,8.27-2.56,11A5.67,5.67,0,0,1,378.6,244.84Z" style="fill:#ad6359"></path><polygon points="389.24 243.68 394.49 240.79 386.13 225.59 379.49 229.24 389.24 243.68" style="fill:#FFC727"></polygon><polygon points="379.49 229.24 383.21 234.75 389.24 243.68 394.5 240.79 386.13 225.59 379.49 229.24" style="fill:#FFC727"></polygon><polygon points="379.49 229.24 383.21 234.75 389.32 231.39 386.13 225.59 379.49 229.24" style="opacity:0.1"></polygon><rect x="378.28" y="223.77" width="9.44" height="7.17" transform="translate(828.32 219.77) rotate(148.33)" style="fill:#FFC727"></rect><polygon points="370.35 227.87 376.97 224.65 370.88 214.78 365.02 219.25 370.35 227.87" style="fill:#FFC727"></polygon><polygon points="372.88 210.84 381.87 225.41 393.11 220.21 422.97 214.15 401.39 179.16 382.57 203.13 372.88 210.84" style="fill:#FFC727"></polygon><path d="M407.09,199.79c6,9.71,13.38,16,16.5,14.1s.79-11.36-5.19-21.07-13.38-16-16.5-14.09S401.1,190.08,407.09,199.79Z" style="fill:#FFC727"></path><path d="M408.22,198.68c5.32,8.62,11.7,14.32,14.26,12.75s.31-9.84-5-18.46-11.7-14.33-14.26-12.75S402.91,190.06,408.22,198.68Z" style="opacity:0.2"></path><path d="M409,198.21c.71,1.15,1.43,2.24,2.17,3.28a4,4,0,0,0,2.68-.58,4.1,4.1,0,0,0,1.34-5.64l-1-1.65a4.11,4.11,0,0,0-5.64-1.35,4.18,4.18,0,0,0-1.71,2.11Q407.78,196.27,409,198.21Z" style="fill:#FFC727"></path><polygon points="376.72 229.7 389.53 223.46 377.75 204.37 366.43 213.02 376.72 229.7" style="fill:#FFC727"></polygon><polygon points="376.72 229.7 389.53 223.46 377.75 204.37 366.43 213.02 376.72 229.7" style="opacity:0.2"></polygon><path d="M401.23,182.57a12.58,12.58,0,0,0,.29,4.61,28.84,28.84,0,0,0,1.37,4.44c.27.73.6,1.43.9,2.14s.67,1.4,1,2.09.73,1.37,1.12,2,.77,1.34,1.18,2a51.66,51.66,0,0,0,5.55,7.45,27.59,27.59,0,0,0,3.42,3.15,11,11,0,0,0,4.13,2.05,11.23,11.23,0,0,1-4-2.23,25.66,25.66,0,0,1-3.31-3.2,63.64,63.64,0,0,1-9.71-15.61,29.07,29.07,0,0,1-1.48-4.36A13.25,13.25,0,0,1,401.23,182.57Z" style="opacity:0.2"></path><path d="M413.65,173.85c-.53.93-1,1.88-1.5,2.83s-.94,1.92-1.39,2.89-.89,2-1.29,2.94l-.61,1.49c-.19.5-.39,1-.56,1.5.27-.46.52-.94.78-1.41l.73-1.42c.48-1,.94-1.93,1.39-2.89s.88-1.95,1.28-2.94S413.3,174.86,413.65,173.85Z" style="fill:#263238"></path><path d="M419.66,205.12c1.2-.15,2.39-.35,3.58-.56s2.37-.44,3.55-.68,2.36-.51,3.53-.8l1.75-.44c.59-.16,1.17-.31,1.75-.48-.6.07-1.2.17-1.79.25l-1.79.31c-1.19.2-2.37.44-3.55.68s-2.36.51-3.53.8S420.82,204.78,419.66,205.12Z" style="fill:#263238"></path><path d="M438.75,193c-1.7.52-3.38,1.09-5.05,1.67s-3.34,1.19-5,1.8-3.32,1.25-5,1.91l-2.46,1c-.82.35-1.64.68-2.45,1,.85-.26,1.68-.55,2.53-.82l2.51-.86c1.68-.58,3.34-1.19,5-1.8s3.31-1.25,5-1.91S437.12,193.73,438.75,193Z" style="fill:#263238"></path><path d="M423,170.52c-1.05,1.46-2.05,3-3.05,4.45s-2,3-2.94,4.52-1.92,3-2.84,4.58l-1.39,2.31c-.45.78-.91,1.55-1.35,2.34.53-.73,1-1.47,1.55-2.21l1.5-2.24c1-1.49,2-3,2.94-4.52s1.92-3,2.84-4.58S422.1,172.09,423,170.52Z" style="fill:#263238"></path><path d="M415.63,194.34c1.81-1,3.59-2.09,5.37-3.17s3.52-2.18,5.29-3.27,3.5-2.23,5.23-3.37l2.6-1.72c.86-.59,1.72-1.16,2.57-1.76-.91.5-1.8,1-2.7,1.56l-2.67,1.6c-1.77,1.08-3.52,2.19-5.29,3.28s-3.5,2.23-5.23,3.37S417.33,193.15,415.63,194.34Z" style="fill:#263238"></path><path d="M383.61,231.1c.59,2.79,3.55.49,3.55.49s-3.46,4.33-1.74,7,5.14-.35,5.4-.56c-.18.23-3.26,4.3-1.25,6.78s5.07-.94,5.26-1.16c-.1.27-1.39,3.88.56,5.42,3.36,2.64,6.92-6.51,10.14-7.76,0,0,2.75,5.22,2.87,5.35S412,238,410,233.76a3,3,0,0,0-3.31-1.74s1.45-2.65-.06-4.65c-.79-1-3.12-.69-3.12-.69a3.74,3.74,0,0,0-.39-3.88c-1.16-1.35-3.32-.8-3.32-.8s.07-2.57-1.57-3.58C395,216.4,382.35,225.11,383.61,231.1Z" style="fill:#ad6359"></path><path d="M399.47,222s0-.09,0-.07A26.54,26.54,0,0,0,387,231.7c-.1.14.09.36.23.22A54.33,54.33,0,0,1,399.47,222Z" style="fill:#263238"></path><path d="M403.58,226.61c.05,0,0-.12-.05-.09A24.83,24.83,0,0,0,390.6,238c-.09.19,0,.45.13.24C392.8,234.76,399.28,229.07,403.58,226.61Z" style="fill:#263238"></path><path d="M394.78,244.07c2.78-5.1,6.92-8.8,11.72-12,.07,0,0-.12-.06-.1-2.77.91-5.62,3.26-7.68,5.28a15.22,15.22,0,0,0-4.16,6.7C394.57,244.07,394.72,244.18,394.78,244.07Z" style="fill:#263238"></path><path d="M387.06,231.6c-.11.17.26.14.16.32-.45.74-2.77,5.42-1.42,6.7,1.08,1,3.21.29,3.92-.32l1.78-1.52-1.14,2.05a9.56,9.56,0,0,0-1.08,2.91,3.42,3.42,0,0,0,.49,2.76,2,2,0,0,0,2.36.69,6,6,0,0,0,2.33-1.84l1.75-2.16-.94,2.6a9.1,9.1,0,0,0-.51,2.24,3.72,3.72,0,0,0,.34,2.12,1.76,1.76,0,0,0,1.61.92,3.89,3.89,0,0,0,2-1,29.78,29.78,0,0,0,3.31-3.5c.53-.61,1.07-1.23,1.63-1.82a5.8,5.8,0,0,1,1.93-1.48,6.22,6.22,0,0,0-1.76,1.63c-.51.63-1,1.28-1.48,1.93a26.27,26.27,0,0,1-3.19,3.75,4.54,4.54,0,0,1-2.3,1.25,2.49,2.49,0,0,1-2.43-1.27,4.51,4.51,0,0,1-.5-2.61,9.86,9.86,0,0,1,.53-2.51l.8.44a6.8,6.8,0,0,1-2.72,2.21,2.87,2.87,0,0,1-1.92.09,3.23,3.23,0,0,1-1.53-1.12,4.32,4.32,0,0,1-.62-3.5,10.35,10.35,0,0,1,1.23-3.18l.64.52c-.93.74-3.22,1.83-5.1.45C383,237.2,386.38,232.43,387.06,231.6Z" style="fill:#263238"></path><path d="M387.16,231.59a5.5,5.5,0,0,1-1.67.54,1.34,1.34,0,0,1-1.27-.45,2.84,2.84,0,0,1-.4-1.48c0-.58,0-1.18,0-1.81a4.47,4.47,0,0,0-.66,1.77,2.69,2.69,0,0,0,.39,2,1.81,1.81,0,0,0,2,.57A3.05,3.05,0,0,0,387.16,231.59Z" style="fill:#263238"></path><path d="M376.13,246.09l24.51,21.69s-19.7,31.71-30.11,30.91c-10.18-.79-22-28.33-25.84-39.9s-1.11-19.35,9.33-9.4c9.65,9.2,13.07,13.94,13.41,13.84S376.13,246.09,376.13,246.09Z" style="fill:#FFC727"></path><path d="M367.36,263.24a71.15,71.15,0,0,0-3.55,8.4c-.51,1.41-1,2.85-1.4,4.29a34.09,34.09,0,0,0-1.07,4.35c0,.05.07.06.09,0,.61-1.37,1.11-2.81,1.6-4.22s1-2.83,1.5-4.25c1-2.85,2.07-5.66,3-8.53A.07.07,0,1,0,367.36,263.24Z" style="fill:#263238"></path><path d="M375.28,253.53c1.13.89,2.18,1.89,3.25,2.84s2.14,1.93,3.18,2.92q3.15,2.94,6.25,5.94l1.69,1.66c.59.6,1.11,1.27,1.71,1.86a.06.06,0,0,1-.08.08c-.52-.48-1.11-.88-1.65-1.34s-1.09-1-1.63-1.47l-3.17-2.93c-2.1-2-4.19-3.94-6.23-6-1.15-1.15-2.34-2.27-3.42-3.48A.07.07,0,0,1,375.28,253.53Z" style="fill:#263238"></path><path d="M383.55,290.43c-4.65,4.88-9.4,8.54-13,8.26-10.18-.79-22-28.32-25.84-39.9-2.43-7.3-2.24-13.08.85-13.87Z" style="opacity:0.1"></path><path d="M359.89,237.35a5,5,0,0,0,3.67-8.23,4.57,4.57,0,0,0,4.28-3.6,4.37,4.37,0,0,0-3.09-4.92s0,0,0,0a4.47,4.47,0,0,1,2.74,4.81,4,4,0,0,1-3.18,3.14,5.49,5.49,0,0,0,2.42-3.65,4.26,4.26,0,0,0-2-4.26,6.28,6.28,0,0,0,.69-5.59,4.26,4.26,0,0,0-3.83-2.65,4.76,4.76,0,0,0-6.28-6.1,4,4,0,0,0-4.53-5,2.69,2.69,0,0,0-1.39-2.55,4.53,4.53,0,0,0-3.45-.21,3.23,3.23,0,0,0-2.55-1.73,2.91,2.91,0,0,0-3,2.28,8,8,0,0,0-5.7-.47,4.19,4.19,0,0,0-2.81,3.66,5.79,5.79,0,0,0-7.09,5,4.06,4.06,0,0,0-3.37,2.26,5.92,5.92,0,0,0-.74,2.8,3,3,0,0,0-2.56,2.46,4,4,0,0,0,1,3.3,2.32,2.32,0,0,1-.12,1,5.29,5.29,0,0,0,.74,4.94,3.61,3.61,0,0,0,1.19,5.28,4.05,4.05,0,0,0,2.51,5.11,5.88,5.88,0,0,0,.89,4.83,3.43,3.43,0,0,0,3.4,1.61,2.08,2.08,0,0,0,1.79,2.1,4.83,4.83,0,0,0,1.14.08,4.46,4.46,0,0,1,1.46,0c.45.15.72.64,1,1a6.36,6.36,0,0,0,.77.6,5.38,5.38,0,0,0,6.66-.9c1.26,1.22,3.17,1.07,4.71.43a8.52,8.52,0,0,0,1.42-.78,2.29,2.29,0,0,1,1.34-.47c.32,0,.63.08.95.08a3.67,3.67,0,0,0,2.63-1.34C355.07,244.8,359.85,241.65,359.89,237.35Zm-41.51-21.89a3.23,3.23,0,0,1,2.25-3,1.33,1.33,0,0,0,0,.17s-.36.25-.53.39a4.2,4.2,0,0,0-1.4,3.25,4.37,4.37,0,0,0,.19,1.07l0,.14A3.92,3.92,0,0,1,318.38,215.46Zm25.47-17.63a3.09,3.09,0,0,0-3.25,1.41l-.1,0c.51-1.23,1.31-2.21,2.84-2.08a2.71,2.71,0,0,1,2.19,1.56h0A3.33,3.33,0,0,0,343.85,197.83Zm7.87,43.7,0,0a5.59,5.59,0,0,0,7.41-2.35C357.84,242.08,355,243.85,351.72,241.53Z" style="fill:#263238"></path><path d="M361.87,305.6l-55.95-.7s15.32-46.53,27.18-58.45c5.4-5.42,10.48-4.41,14.7-.68,1.05.93,13.77,18.74,14.72,24.7.84,5.27-3.44,10.54-3.44,10.54Z" style="fill:#FFC727"></path><path d="M344.08,280.22a45.84,45.84,0,0,1,6.93.16c1.14.12,2.27.3,3.4.51.56.1,1.13.18,1.69.26a7.19,7.19,0,0,0,1.79.08c.06,0,.07.07,0,.08a11.69,11.69,0,0,1-1.68.21,11.19,11.19,0,0,1-1.64-.08c-1.16-.11-2.32-.29-3.48-.42-2.33-.26-4.67-.52-7-.61C344,280.41,344,280.22,344.08,280.22Z" style="fill:#263238"></path><path d="M338.73,283a53,53,0,0,1,5.62-1.07c.94-.12,1.89-.19,2.84-.23.46,0,.91,0,1.37,0s1,.05,1.51,0a0,0,0,0,1,0,.09c-.48,0-.95.13-1.42.18l-1.41.17c-.95.11-1.89.23-2.84.33-1.89.2-3.78.42-5.66.69A.08.08,0,0,1,338.73,283Z" style="fill:#263238"></path><path d="M325.22,252.93c-15.06,18.52-31.51,49.27-23.46,55.22,7.36,5.44,32.81-1.46,48.65-8.65,3-1.37-10.92-27.95-14-26.16a87.78,87.78,0,0,1-10,5.15c-.87.29,3.68-5.91,8.34-20.48C339.5,243.2,333.83,242.35,325.22,252.93Z" style="fill:#ad6359"></path><path d="M375.65,269.21c.19,3.17-7.66,3-7.66,3a5.85,5.85,0,0,1,2.55,3.06c.71,2.3-2.59,4.43-2.59,4.43a7.23,7.23,0,0,1,2.18,3.65c.46,2.28-2.56,4.9-2.56,4.9a6.32,6.32,0,0,1-.11,4.41c-1.67,3.71-7.91,4.12-11.72,5.13a81.45,81.45,0,0,0-12.43,4.71l-8.69-28.08s16.2-10.82,20.89-10.84C359.45,263.51,375.37,264.37,375.65,269.21Z" style="fill:#ad6359"></path><path d="M367.92,272.08A52.71,52.71,0,0,0,355,271.2a.07.07,0,1,0,0,.14c4.25-.12,8.63.9,12.88,1C368,272.29,368,272.11,367.92,272.08Z" style="fill:#263238"></path><path d="M367.82,279.34a11.13,11.13,0,0,0-2.94,0c-1,.07-2.08.15-3.12.26-2.07.21-4.15.46-6.21.77-.09,0-.09.16,0,.15,2.08-.2,4.15-.37,6.23-.49l3.12-.15a13.7,13.7,0,0,0,2.93-.25A.15.15,0,0,0,367.82,279.34Z" style="fill:#263238"></path><path d="M367.48,288.21a7.89,7.89,0,0,0-2.65.14l-2.83.33c-1.9.2-3.79.41-5.68.55a.08.08,0,1,0,0,.15c1.93-.14,3.86-.24,5.79-.39l2.83-.24a7.28,7.28,0,0,0,2.55-.44C367.54,288.29,367.52,288.22,367.48,288.21Z" style="fill:#263238"></path><path d="M333.86,274.1l7.79,30.28s-37.78,12-42.27,2.56,16.12-46.69,28.56-57.65,8.43,5.48,8.11,6.8c-1.45,5.84-8.82,21.26-8.82,21.26Z" style="fill:#FFC727"></path><path d="M333.2,274.16c-4.32,1.78-15.55,8.15-17.95,10.65-.07.07,0,.19.09.12,2.4-1.89,16.28-9.62,18.46-10.59a3,3,0,0,0,.18.33c.08.11.13,0,.13-.06a7.19,7.19,0,0,0-.21-.74Z" style="fill:#263238"></path><path d="M330.83,291.46c-.53-2.11-2.58-10.58-2.93-12.73,0,0,.05-.05.06,0,.73,2,3,10.28,3.54,12.4a121,121,0,0,1,2.82,12.76c0,.07-.11.12-.14,0C332.79,299.84,331.87,295.63,330.83,291.46Z" style="fill:#263238"></path><path d="M326.93,277.55c1.07-2.67,2.4-5.23,3.58-7.85s2.42-5.2,3.5-7.84c0,0,.08,0,.06,0-.65,1.8-1.3,3.59-2,5.36.22-.28.44-.58.64-.88.38-.54.72-1.11,1.06-1.67,0,0,.07,0,.06,0a9.14,9.14,0,0,1-1,1.79,12,12,0,0,1-1,1.17c-.29.73-.59,1.44-.9,2.16a55.12,55.12,0,0,1-3.61,7.7C327.33,277.62,326.9,277.64,326.93,277.55Z" style="fill:#263238"></path><path d="M305,310.1c7.8,1.1,32.33-4.58,36.51-5.67-.08-.45-.08-.6-.18-1.24,0-.08.11-.12.13,0,.15.6.62,1.77.46,1.85-2,.9-29.31,7.13-36.92,5.29C304.88,310.26,304.87,310.09,305,310.1Z" style="fill:#263238"></path><path d="M337.87,245.14c.19,1,4.61,7.56,9.1,7.54,1.46,0,1.77-8,1.77-8l.16-.59,2.19-8.19-9.44-6.64-1.37-.88s-.45,2.28-1,5.12c0,.14-.05.27-.08.41s-.07.31-.09.46c-.09.43-.17.86-.25,1.29s-.12.65-.17,1-.11.69-.16,1A55.2,55.2,0,0,0,337.87,245.14Z" style="fill:#ad6359"></path><path d="M339.29,233.5a17,17,0,0,0,9.61,10.59l2.19-8.19-9.44-6.64-1.37-.88S339.83,230.66,339.29,233.5Z" style="fill:#263238"></path><path d="M361.6,220.32c4.4,14.21-3.62,18.45-6.68,19.4-2.79.86-12.37,3.43-18.22-10.25s-.63-20.23,5.63-22.53S357.2,206.11,361.6,220.32Z" style="fill:#ad6359"></path><path d="M359.13,218.69c-.35,0-.68,0-1,0a1.64,1.64,0,0,1-1.05-.18.52.52,0,0,1-.15-.63,1.3,1.3,0,0,1,1.19-.59,1.93,1.93,0,0,1,1.33.38A.56.56,0,0,1,359.13,218.69Z" style="fill:#263238"></path><path d="M349.19,221a9.9,9.9,0,0,0,.93-.44A1.68,1.68,0,0,0,351,220a.53.53,0,0,0-.15-.63,1.32,1.32,0,0,0-1.33,0,2,2,0,0,0-1,.94A.57.57,0,0,0,349.19,221Z" style="fill:#263238"></path><path d="M352.33,224s-.07.07-.05.11c.28,1,.45,2.13-.35,2.69,0,0,0,.07,0,.05C353,226.44,352.76,224.9,352.33,224Z" style="fill:#263238"></path><path d="M351.19,223.23c-1.61.29-.91,3.49.58,3.22S352.53,223,351.19,223.23Z" style="fill:#263238"></path><path d="M350.6,223.54c-.24.24-.45.62-.78.73s-.74-.15-1.07-.41c0,0-.05,0-.05,0,.13.62.5,1.19,1.18,1.14s.93-.69.94-1.33C350.83,223.59,350.69,223.44,350.6,223.54Z" style="fill:#263238"></path><path d="M357.78,222.6s.09,0,.1.07c.18,1,.55,2.11,1.52,2.25,0,0,0,.06,0,.06C358.27,225.06,357.79,223.58,357.78,222.6Z" style="fill:#263238"></path><path d="M358.45,221.38c1.56-.46,2.37,2.71.92,3.14S357.13,221.76,358.45,221.38Z" style="fill:#263238"></path><path d="M359.16,221.42c.29.1.62.35.92.29s.52-.47.66-.86c0,0,.05,0,.06,0,.17.61.13,1.29-.42,1.55s-1-.18-1.32-.74C359,221.57,359,221.38,359.16,221.42Z" style="fill:#263238"></path><path d="M353.73,232.58c.28.19.57.47.94.44a2.68,2.68,0,0,0,1-.44,0,0,0,0,1,.05,0,1.37,1.37,0,0,1-1.17.76,1.08,1.08,0,0,1-.94-.75S353.69,232.55,353.73,232.58Z" style="fill:#263238"></path><path d="M357.3,227.64s.55,1.43.71,2.12c0,.07-.15.14-.38.21h0a3.37,3.37,0,0,1-3.49-.48c-.07-.06,0-.15.08-.12a5.15,5.15,0,0,0,3.22.16c0-.2-1-2.41-.91-2.45a6.54,6.54,0,0,1,1.66,0c-1.05-3-2.58-5.81-3.59-8.82a.1.1,0,0,1,.18-.08A52.25,52.25,0,0,1,359,227.5C359.16,227.88,357.61,227.7,357.3,227.64Z" style="fill:#263238"></path><path d="M357.21,229.89a3.8,3.8,0,0,1-1.21,1.48,1.71,1.71,0,0,1-1,.29c-.77,0-.94-.69-.94-1.29a3.83,3.83,0,0,1,.13-.94A4.81,4.81,0,0,0,357.21,229.89Z" style="fill:#263238"></path><path d="M356,231.37a1.71,1.71,0,0,1-1,.29c-.77,0-.94-.69-.94-1.29A1.75,1.75,0,0,1,356,231.37Z" style="fill:#ff99ba"></path><path d="M348.38,209a6.44,6.44,0,0,1,.62,3.74c-.85,3.53-4.88,3.52-5.93,5.06s0,3.82-.89,5.25c-1.19,2-2.5,1-2.52,2.18s0,4.84-1.31,5.59-12.8-21.28,5.79-24.5c0,0,2.35-1.72,6.65-.44,6.13,1.84,8.61,8.88,8.61,8.88a4.66,4.66,0,0,1-1.91-.42c-1.06-.59-1.62-1.08-2.38-1.45-1.2-.58-1.71.12-2.94-.43A12.74,12.74,0,0,1,348.38,209Z" style="fill:#263238"></path><path d="M348,208.25a12.53,12.53,0,0,1,1.15,2.7,5.38,5.38,0,0,1,.19,2.83,3.87,3.87,0,0,1-1.76,2.09c-.81.51-1.76.81-2.62,1.39a3.08,3.08,0,0,0-1,1.19,4,4,0,0,0-.23,1.54,5.34,5.34,0,0,1-.48,2.77,3.28,3.28,0,0,1-2.25,1.56,6.83,6.83,0,0,0-2.83.77,6.8,6.8,0,0,1,2.87-.54,3.5,3.5,0,0,0,2.51-1.61,5.28,5.28,0,0,0,.6-2.95,3.53,3.53,0,0,1,.22-1.36,2.57,2.57,0,0,1,.9-1c.76-.53,1.72-.86,2.57-1.41a4.81,4.81,0,0,0,1.16-1,3,3,0,0,0,.73-1.37,5.49,5.49,0,0,0-.33-3A12.37,12.37,0,0,0,348,208.25Z" style="fill:#263238"></path><path d="M348.58,209a10.12,10.12,0,0,0,1.43,2.35A4.81,4.81,0,0,0,352.3,213a7.05,7.05,0,0,0,1.38.22,2.25,2.25,0,0,1,1.14.45,7.09,7.09,0,0,0,1,.92,3.16,3.16,0,0,0,1.32.43,3.38,3.38,0,0,1-1.19-.62,6.73,6.73,0,0,1-.91-1,2.41,2.41,0,0,0-1.33-.62,8.16,8.16,0,0,1-1.3-.23,5.2,5.2,0,0,1-2.15-1.45A19.55,19.55,0,0,1,348.58,209Z" style="fill:#263238"></path><path d="M338.72,234.08a2.91,2.91,0,0,0,.71,0,2.35,2.35,0,0,0,.69-.13,2.11,2.11,0,0,0,.78-.45,2.59,2.59,0,0,0,.46-.55,2.75,2.75,0,0,0,.37-.93l-1.64-3.71s-4.17-3.85-6-2.27S336.11,233.71,338.72,234.08Z" style="fill:#ad6359"></path><path d="M335.25,227.78a0,0,0,0,0,0,.06A6.38,6.38,0,0,1,339.3,231a1.39,1.39,0,0,0-2.11.07.06.06,0,0,0,.07.09,1.55,1.55,0,0,1,1.78.16,7.67,7.67,0,0,1,1.09,1.18c.11.13.36,0,.27-.17l0,0C340,230.15,337.61,227.49,335.25,227.78Z" style="fill:#263238"></path><path d="M338.79,233.43a.69.69,0,0,0,.91.35.68.68,0,0,0,.35-.91.69.69,0,0,0-1.26.56Z" style="fill:#fff"></path><path d="M337.19,232.71a.48.48,0,0,0,.64.25.49.49,0,0,0,.25-.64.49.49,0,1,0-.89.39Z" style="fill:#fff"></path></g><g id="freepik--character-2--inject-126"><path d="M207.15,173.4c-4.9,14.26-5.2,39.45-2.64,43.92,3.27,5.7,25.48,11.21,34.27,14.1,4.08,1.34,8.39-25.61,3.71-25.28-2,.14-19.08-2.76-20.26-3.08-2.45-.68-1.57-16.95-4.27-30.62C216.19,163.46,210.84,162.64,207.15,173.4Z" style="fill:#eb9481"></path><path d="M240.57,206.27s7.21-.6,10.44-.17,14.66,6.48,13.49,9c-1.5,3.29-8.79,1.1-12.22-.44,0,0-3.47,7.6-9,7.16S240.57,206.27,240.57,206.27Z" style="fill:#eb9481"></path><path d="M238.78,231.42c2.49,1.23,14.4,5.84,18,6.38s14.08,1.35,14.77-1.36-2.35-3.2-2.35-3.2,4.48-.36,4.93-3.15-4.32-3.4-4.32-3.4,4.58-.7,4.83-3.52-4.65-2.62-4.65-2.62,4.21-.45,3.44-2.86c-.93-2.9-8.6-1.2-12.53-2.09-.89-.21-17.79-5.42-17.79-5.42Z" style="fill:#eb9481"></path><path d="M270.41,220.54c-5.64,1.24-8.32.81-13.67-1.12-.1,0-.18.1-.08.15,5.07,2.37,8.35,3.4,13.83,1.24C270.75,220.71,270.68,220.48,270.41,220.54Z" style="fill:#263238"></path><path d="M270.26,226.59c-6,.77-8.89.33-14.64-1.28-.08,0-.12.11,0,.14,5.5,2.05,8.81,3,14.67,1.45C270.52,226.82,270.53,226.55,270.26,226.59Z" style="fill:#263238"></path><path d="M268.91,233.15c-5.83.33-9.05,0-14.43-2.3-.13,0-.22.13-.1.19,5.26,2.86,9.27,3.33,14.52,2.29C269.26,233.26,269.28,233.13,268.91,233.15Z" style="fill:#263238"></path><path d="M263.79,215.89c-3.53,2-7.9-.3-11.34-1.55a.33.33,0,0,0-.46.3c-1.67,3.08-4.92,7-8.6,7.37a.09.09,0,0,0,0,.17c4,.09,7.52-3.45,9.13-7,3.5,1.33,8,3.46,11.29.69C263.83,215.91,263.81,215.88,263.79,215.89Z" style="fill:#263238"></path><path d="M231.08,203.45l-8.73,25.48s-12.44-3.81-17.22-7.58-4.16-26.51.73-44.92,11.56-13.93,13.14-.84c1.25,10.32,3.94,26.56,4.11,27.09S231.08,203.45,231.08,203.45Z" style="fill:#FFC727"></path><path d="M229.71,203.53a1.19,1.19,0,0,0-.77.33,1,1,0,0,1-1,.27,1.25,1.25,0,0,1-.47-.27l-.48-.37c.11.17.24.32.36.48a1.27,1.27,0,0,0,.51.4,1.2,1.2,0,0,0,1.26-.28,1,1,0,0,1,.58-.27Zm-7.44,21.61a1.22,1.22,0,0,0-.49-.4,1.17,1.17,0,0,0-1.27.23,1,1,0,0,1-1,.27,1,1,0,0,1-.47-.27l-.48-.36c.11.16.24.32.37.48a1.27,1.27,0,0,0,.51.39,1.17,1.17,0,0,0,1.25-.28,1,1,0,0,1,1-.23,1.12,1.12,0,0,1,.47.29l.48.36C222.53,225.46,222.4,225.3,222.27,225.14Zm-11-21.62a1.25,1.25,0,0,0-.5-.4,1.15,1.15,0,0,0-1.27.23,1,1,0,0,1-.95.27,1.1,1.1,0,0,1-.48-.27c-.16-.12-.31-.25-.48-.37.11.17.25.32.37.48a1.2,1.2,0,0,0,.51.4,1.17,1.17,0,0,0,1.25-.28,1,1,0,0,1,1-.23,1.31,1.31,0,0,1,.48.28,5.58,5.58,0,0,0,.48.37C211.55,203.83,211.42,203.68,211.3,203.52Zm9.32-6a1.21,1.21,0,0,0-1.09-.7,1,1,0,0,1-.84-.51,1.16,1.16,0,0,1-.13-.54c0-.2-.05-.4-.08-.6,0,.2,0,.4-.08.6a1.15,1.15,0,0,0,1.13,1.37,1,1,0,0,1,.86.49,1,1,0,0,1,.15.53c0,.2,0,.4.08.6,0-.2,0-.4.08-.6A1.29,1.29,0,0,0,220.62,197.48Zm-9.91,19.11a1.18,1.18,0,0,0-1.08-.69,1,1,0,0,1-.85-.51,1.3,1.3,0,0,1-.13-.54c0-.2,0-.4-.08-.6,0,.2,0,.4-.08.6a1.3,1.3,0,0,0,.07.64,1.17,1.17,0,0,0,1.06.73,1,1,0,0,1,.87.49,1.09,1.09,0,0,1,.14.52c0,.2.05.4.08.6,0-.2,0-.4.08-.6A1.21,1.21,0,0,0,210.71,216.59Zm-4.77-35.2a1.19,1.19,0,0,0-1.08-.7h0c0,.11-.06.21-.08.32h.1a1,1,0,0,1,.87.48,1.16,1.16,0,0,1,.14.53c0,.2,0,.4.08.6,0-.2.06-.4.08-.6A1.19,1.19,0,0,0,205.94,181.39Zm12.93,5.69a1.2,1.2,0,0,0-.51-.4,1.18,1.18,0,0,0-1.26.28,1,1,0,0,1-1,.23,1.15,1.15,0,0,1-.47-.28c-.16-.12-.31-.26-.48-.37.11.17.25.32.37.48a1.33,1.33,0,0,0,.49.41,1.17,1.17,0,0,0,1.27-.24,1,1,0,0,1,1-.27,1.23,1.23,0,0,1,.48.27c.16.12.31.25.48.37C219.12,187.39,219,187.24,218.87,187.08Zm2.9,22.71a1.31,1.31,0,0,0-.64.07,1.16,1.16,0,0,0-.73,1.06,1,1,0,0,1-.48.86,1.06,1.06,0,0,1-.53.15c-.2,0-.4,0-.6.08.2,0,.4.05.6.08a1.15,1.15,0,0,0,1.33-1.17,1,1,0,0,1,.52-.84,1.12,1.12,0,0,1,.53-.13c.2,0,.4,0,.6-.08C222.17,209.83,222,209.82,221.77,209.79Zm-5.32-34.58a1.18,1.18,0,0,0-.64.06,1.17,1.17,0,0,0-.73,1.06,1,1,0,0,1-.49.87,1.09,1.09,0,0,1-.52.15c-.2,0-.4,0-.6.08l.6.08a1.17,1.17,0,0,0,1.33-1.17,1,1,0,0,1,.51-.84,1.3,1.3,0,0,1,.54-.14l.6-.07C216.85,175.25,216.65,175.23,216.45,175.21Zm-10.39,18a1.15,1.15,0,0,0-1.37,1.12,1,1,0,0,1-.48.87,1.31,1.31,0,0,1-.53.15l-.6.07c.2,0,.4.06.6.08a1.1,1.1,0,0,0,.64-.08,1.16,1.16,0,0,0,.69-1.08,1,1,0,0,1,.52-.84,1.3,1.3,0,0,1,.53-.14c.2,0,.4,0,.6-.08Z" style="fill:#fff"></path><polygon points="235.49 202.98 228.74 202.64 218.85 228.72 225.33 230.82 235.49 202.98" style="fill:#FFC727"></polygon><polygon points="235.49 202.98 228.74 202.64 218.85 228.72 225.33 230.82 235.49 202.98" style="opacity:0.1"></polygon><path d="M170.76,377l-19.22,34c-3.09,6.85-5.67,12.91-6.72,16.17,0,0,0,0,0,.06a5.17,5.17,0,0,0-.45,2.34l0,.06c1.42,2.3,55.45,28.56,57.64,28.84s3.17-5.95,1.88-8.64-17.48-22-17.48-22l18.86-34.1Z" style="fill:#eb9481"></path><path d="M201.15,458.29C199,458,145.8,432,144.38,429.65l0-.06a5.39,5.39,0,0,1,.44-2.34s0,0,0-.05c1-3.26,3.62-9.33,6.7-16.18,0,0,3.24-5.94,4.53-8l34.36,17.76-4,7.07S201.74,447,203,449.65,203.35,458.58,201.15,458.29Z" style="fill:#ebebeb"></path><path d="M202.14,457.56c-2.2-.34-56-28.07-57.41-30.43-.54-.88,3-9,7.65-18.6l.15-.3,34.93,17.5-.32.58s15.86,19.84,17.1,22.59S204.35,457.9,202.14,457.56Z" style="fill:#FFC727"></path><path d="M202.61,455.16c-9-4.9-45.56-23.81-54.79-28-.07,0-.1,0,0,.06,8.78,5.05,45.53,23.66,54.74,28.06C202.73,455.4,202.8,455.26,202.61,455.16Z" style="fill:#fff"></path><path d="M190,427.92c-3.23-2.5-7.88-4.21-11.92-3.07-.16,0-.09.27,0,.29a56.72,56.72,0,0,1,11.63,3.23A.26.26,0,0,0,190,427.92Z" style="fill:#263238"></path><path d="M191.78,430.8c-3.22-2.5-7.87-4.2-11.91-3.07-.16,0-.09.27,0,.29a56.72,56.72,0,0,1,11.63,3.23A.26.26,0,0,0,191.78,430.8Z" style="fill:#263238"></path><path d="M193.56,433.68c-3.23-2.5-7.88-4.2-11.92-3.06-.15,0-.09.26.05.28a56.63,56.63,0,0,1,11.62,3.23A.26.26,0,0,0,193.56,433.68Z" style="fill:#263238"></path><path d="M158.31,418.84c-2.9-4-9.06.53-6.16,4.5S161.21,422.8,158.31,418.84Z" style="fill:#fff"></path><path d="M189.51,429.29l3.87,24.17c4.87,2.42,8.24,4,8.76,4.1,2.2.34,3.33-5.92,2.1-8.66C203.3,446.82,194,434.93,189.51,429.29Z" style="opacity:0.1"></path><path d="M204,456.05c.77.87-1.11,4-1.93,3.9s-59.39-30.6-60.28-31.33,1.33-4.13,2.59-3.72S204,456.05,204,456.05Z" style="fill:#263238"></path><path d="M156,399.85l38.72,20.67s48.87-69.65,49.84-87.95c1.35-25.27-20.22-105.5-20.22-105.5l-34.42-.23s14,82.51,12.85,96.58C202.16,330.79,156,399.85,156,399.85Z" style="fill:#455a64"></path><path d="M198.08,412.52c-2-1.44-20.35-12.07-34.32-18.87a.09.09,0,0,0-.08.15c4.24,2.8,31.63,17.8,34.29,18.87C198.06,412.7,198.17,412.58,198.08,412.52Z" style="fill:#263238"></path><path d="M207.53,305.79c-1.6-12.07-3.36-24.12-5.36-36.14s-4.14-24.12-6.67-36.1c-.3-1.46-.63-2.92-.95-4.38a.18.18,0,0,0-.35.07c2.12,11.88,4.31,23.75,6.26,35.65s3.77,23.84,5.4,35.79c.41,3,.8,5.93,1.18,8.89a77.11,77.11,0,0,1,.88,9.22,23.55,23.55,0,0,1-1.47,8.64,50.77,50.77,0,0,1-4,7.77c-6.23,10.53-34.11,56.57-34.84,57.91,0,.09.08.18.13.09,6.7-10.39,27.46-43.55,33.77-54.26,2.85-4.83,6.11-9.72,7-15.35C209.55,317.73,208.3,311.61,207.53,305.79Z" style="fill:#263238"></path><path d="M197.61,399.85s-.38,39.26-.38,39.29c.2,7.51.52,14.09,1,17.48a.13.13,0,0,0,0,.06,5.12,5.12,0,0,0,.62,2.3s0,0,0,0c2.28,1.45,62.35,1.54,64.45.84s.26-6.73-2.07-8.6S236,439.09,236,439.09V399.85Z" style="fill:#eb9481"></path><path d="M197.31,431.08s-.08,8-.08,8.06c.2,7.51.52,14.09,1,17.48a.13.13,0,0,0,0,.06,9.6,9.6,0,0,0,.62,2.3s0,0,0,0c2.28,1.45,62.35,1.54,64.45.84s.26-6.73-2.07-8.6S236,439.09,236,439.09V430.9Z" style="fill:#ebebeb"></path><path d="M263.38,459.79c-2.13.68-62.68-.39-64.95-1.89-.88-.56-1.24-9.39-1.37-20.07v-.34l39.07.25,0,.67s23,10.77,25.33,12.69S265.5,459.13,263.38,459.79Z" style="fill:#FFC727"></path><path d="M262.73,457.43c-10.2-.43-51.39-1.2-61.5-.85-.09,0-.09.06,0,.07,10.1.64,51.29,1.08,61.5,1C262.94,457.6,263,457.44,262.73,457.43Z" style="fill:#fff"></path><path d="M239.38,438.58c-4-.82-8.92-.29-12,2.52-.12.11,0,.28.17.24a56,56,0,0,1,11.85-2.25A.26.26,0,0,0,239.38,438.58Z" style="fill:#263238"></path><path d="M242.25,440.38c-4-.82-8.92-.29-12,2.52-.12.1,0,.28.16.24a56.2,56.2,0,0,1,11.86-2.25A.26.26,0,0,0,242.25,440.38Z" style="fill:#263238"></path><path d="M245.12,442.18c-4-.82-8.92-.29-12,2.51-.13.11,0,.28.16.24a57.5,57.5,0,0,1,11.86-2.25A.25.25,0,0,0,245.12,442.18Z" style="fill:#263238"></path><path d="M264.34,457.64c1.07.44.78,4.07,0,4.35s-66.8-1.18-67.92-1.45-.63-4.29.68-4.47S264.34,457.64,264.34,457.64Z" style="fill:#263238"></path><path d="M206.94,444.45c-4.35-2.27-7.89,4.48-3.53,6.76S211.3,446.72,206.94,444.45Z" style="fill:#fff"></path><path d="M223.88,227v0c-.23.71-12.6,34.6-13.76,35.15-1.32.6,27.32,48.72,29,71.07,1.08,14.3-1,95.2-1,95.2H196.21s2-72.73,3-95.78c.37-8.94-28.75-53.43-29.11-81.14-.11-8.73,6.16-24.69,6.16-24.69Z" style="fill:#455a64"></path><path d="M199.42,332.05c0-.37-.29-.49-.32-.11-.95,12.47-1.17,24.87-1.76,37.37s-.26,15.46-.82,27.91c-.31,7.06,0,14.12-.18,21.18a.09.09,0,0,0,.18,0C197.82,406,199.41,339.11,199.42,332.05Z" style="fill:#263238"></path><path d="M239.13,333.74a62.8,62.8,0,0,0-.85-9.18,45.51,45.51,0,0,0-2.59-8.62c-2.31-5.83-5.05-11.52-7.66-17.23s-5.35-11.53-8.14-17.24q-2.35-4.82-4.74-9.61c-1.61-3.24-3.34-6.42-5-9.62a.11.11,0,0,0-.2.1c2.68,5.76,5.33,11.54,8,17.31s5.32,11.54,7.95,17.33,5.2,11.38,7.64,17.14a56.4,56.4,0,0,1,3,8.47,50,50,0,0,1,1.23,9.12c.4,7.15.6,14.33,1.3,21.46,0,.09.16.08.16,0C239.42,346.7,239.32,340.2,239.13,333.74Z" style="fill:#263238"></path><path d="M235.05,420.17c-2.43-.31-21-.95-36.51-.29-.1,0-.1.15,0,.16,5.06.45,33.65.64,36.49.32C235.13,420.34,235.16,420.19,235.05,420.17Z" style="fill:#263238"></path><path d="M215.9,260.29a80.87,80.87,0,0,0-13.1,4.54c-.16.07-.09.33.09.27,4.4-1.37,8.87-2.66,13.18-4.28A.28.28,0,0,0,215.9,260.29Z" style="fill:#263238"></path><path d="M220.12,231.59c0-.15-.25-.21-.27-.05a138.43,138.43,0,0,1-2.14,14c-.42,2.15-3.39,14-7.06,12.7-.62-.21-.88-.87-.88-1.82a15,15,0,0,1,.88-3.63c.67-2.46,1.27-4.95,1.74-7.46a69,69,0,0,0,1.3-14.19.12.12,0,0,0-.24,0,131.82,131.82,0,0,1-3.15,19.45c-.79,3.07-2.85,7.6.37,8.42s6.22-6.82,6.85-8.93A72.42,72.42,0,0,0,220.12,231.59Z" style="fill:#263238"></path><path d="M210.71,258.56a20.81,20.81,0,0,0-1.1,2.4,5.7,5.7,0,0,0-.56,2c0,.14.18.17.26.09a7.39,7.39,0,0,0,1.07-1.9c.37-.74.75-1.47,1.09-2.22A.42.42,0,0,0,210.71,258.56Z" style="fill:#263238"></path><path d="M203.71,344.35c.21-6,.87-12.19-1.08-17.94a59.85,59.85,0,0,0-3.82-8.15q-2.17-4.2-4.28-8.44c-5.59-11.3-10.86-22.78-15.57-34.48a73.17,73.17,0,0,1-5.11-17.46,53.78,53.78,0,0,1,1.17-19c.35-1.55.73-3.09,1.15-4.62a.09.09,0,0,0-.17-.07,62.54,62.54,0,0,0-3.26,18.17,51,51,0,0,0,3.15,17.36c2,5.85,4.52,11.53,7,17.19q3.84,8.74,8,17.36c2.74,5.71,5.66,11.33,8.55,17a30.67,30.67,0,0,1,3.22,8.56,43.82,43.82,0,0,1,.34,9.37c-.49,13.17-1.63,57-1.79,70.14l-.06,5c0,.15.22.17.23,0C202.16,401.22,203.23,357.48,203.71,344.35Z" style="fill:#263238"></path><path d="M194.31,235.52c0-.09-.14-.07-.16,0-.49,3.63-.77,7.39-2.52,10.68a15,15,0,0,1-7.46,6.32,52.89,52.89,0,0,1-5.44,2c-.13.05-.1.25,0,.22,3.47-.72,7-1.52,10-3.47a12.51,12.51,0,0,0,5.41-9.14A31.85,31.85,0,0,0,194.31,235.52Z" style="fill:#263238"></path><rect x="270.58" y="161.93" width="23.91" height="25.34" transform="translate(565.08 349.19) rotate(180)" style="fill:#455a64"></rect><rect x="240.6" y="161.93" width="29.99" height="25.34" transform="translate(511.18 349.19) rotate(180)" style="fill:#37474f"></rect><rect x="307.78" y="161.93" width="23.34" height="25.34" transform="translate(638.91 349.19) rotate(180)" style="fill:#455a64"></rect><rect x="310.7" y="165.21" width="17.51" height="18.78" transform="translate(638.91 349.19) rotate(180)" style="fill:#455a64"></rect><polygon points="299.15 185.13 301.99 187.27 307.78 187.27 307.78 161.93 302.06 161.93 299.15 164.07 299.15 185.13" style="fill:#37474f"></polygon><rect x="276.32" y="165.45" width="22.84" height="18.29" transform="translate(575.47 349.19) rotate(180)" style="fill:#263238"></rect><polygon points="328.21 165.21 324.43 168.99 324.43 180.62 328.21 183.99 328.21 165.21" style="fill:#37474f"></polygon><polygon points="324.43 168.99 328.21 165.21 310.7 165.21 310.7 168.99 324.43 168.99" style="fill:#263238"></polygon><polygon points="328.21 183.99 324.43 180.62 310.7 180.62 310.7 183.99 328.21 183.99" style="fill:#263238"></polygon><path d="M310.7,170.85v8a6.4,6.4,0,0,0,2.75,1.75h4.21A6,6,0,0,0,317.3,169h-3.49A6.46,6.46,0,0,0,310.7,170.85Z" style="fill:#37474f"></path><path d="M310.7,170.68V179a5.73,5.73,0,0,0,2.37,1.58h3.83a6.16,6.16,0,0,0-.33-11.63h-3.18A5.78,5.78,0,0,0,310.7,170.68Z" style="fill:#ebebeb"></path><rect x="284.49" y="157.28" width="4.65" height="4.65" transform="translate(573.64 319.21) rotate(180)" style="fill:#37474f"></rect><rect x="279.56" y="152.43" width="22.2" height="4.85" transform="translate(581.32 309.71) rotate(180)" style="fill:#37474f"></rect><rect x="295.6" y="150.49" width="24.08" height="8.73" rx="4.35" transform="translate(615.27 309.71) rotate(-180)" style="fill:#263238"></rect><rect x="276.91" y="153.82" width="2.65" height="2.06" transform="translate(556.47 309.71) rotate(180)" style="fill:#455a64"></rect><rect x="262.14" y="169.85" width="2.94" height="9.49" transform="translate(527.22 349.19) rotate(180)" style="fill:#455a64"></rect><rect x="246.2" y="167.94" width="16.7" height="13.31" transform="translate(509.1 349.2) rotate(180)" style="fill:#455a64"></rect><rect x="271.41" y="152.43" width="3.92" height="9.5" transform="translate(546.74 314.36) rotate(180)" style="fill:#37474f"></rect><polygon points="249.81 155.55 275.33 155.55 275.33 151.63 272.48 149.06 249.81 149.06 249.81 155.55" style="fill:#37474f"></polygon><polygon points="242.1 145.01 249.81 149.06 249.81 155.55 242.1 159.6 242.1 145.01" style="fill:#263238"></polygon><rect x="272.51" y="193.53" width="6.26" height="6.26" transform="translate(551.27 393.32) rotate(180)" style="fill:#37474f"></rect><rect x="258.17" y="193.53" width="6.26" height="6.26" transform="translate(522.61 393.32) rotate(180)" style="fill:#455a64"></rect><rect x="270.58" y="187.27" width="13.25" height="6.26" transform="translate(554.42 380.79) rotate(180)" style="fill:#37474f"></rect><rect x="252.03" y="187.27" width="18.56" height="6.26" transform="translate(522.61 380.79) rotate(180)" style="fill:#455a64"></rect><rect x="270.41" y="219.8" width="6.51" height="6.26" transform="translate(547.32 445.86) rotate(180)" style="fill:#37474f"></rect><rect x="261.3" y="219.8" width="9.11" height="6.26" transform="translate(531.7 445.86) rotate(180)" style="fill:#455a64"></rect><rect x="271.04" y="226.06" width="9.71" height="3.13" transform="translate(551.8 455.25) rotate(180)" style="fill:#37474f"></rect><rect x="257.44" y="226.06" width="13.6" height="3.13" transform="translate(528.48 455.25) rotate(180)" style="fill:#455a64"></rect><path d="M259.61,198.33V219.8h18.78c4.05-.23,7.28-4.94,7.28-10.73s-3.23-10.49-7.28-10.72H259.61Z" style="fill:#263238"></path><ellipse cx="259.61" cy="209.07" rx="7.58" ry="10.73" style="fill:#37474f"></ellipse><path d="M253.2,209.07c0,5,2.87,9.06,6.41,9.06s6.41-4.06,6.41-9.06-2.87-9.07-6.41-9.07S253.2,204.06,253.2,209.07Z" style="fill:#455a64"></path><rect x="253.85" y="229.19" width="30.5" height="7.4" style="fill:#263238"></rect><polygon points="270.71 461.41 267.5 461.41 265.72 236.59 272.49 236.59 270.71 461.41" style="fill:#37474f"></polygon><polygon points="198.87 461.41 195.65 461.41 254.79 236.59 261.56 236.59 198.87 461.41" style="fill:#37474f"></polygon><polygon points="339.35 461.41 342.56 461.41 283.43 236.59 276.65 236.59 339.35 461.41" style="fill:#37474f"></polygon><rect x="219.01" y="353.73" width="100.19" height="5.07" style="fill:#263238"></rect><path d="M230.91,236.31l-58.18-3.8s10.3-50.2,37.21-69.13c4.85-3.41,13.31,1,14.62,5.14C230.69,187.81,231.09,236.13,230.91,236.31Z" style="fill:#FFC727"></path><path d="M206.06,193.37a1.3,1.3,0,0,0-.53.14,1,1,0,0,0-.51.84,1.19,1.19,0,0,1-.7,1.08,1.1,1.1,0,0,1-.64.08c-.2,0-.4,0-.6-.08l.6-.07a1.26,1.26,0,0,0,.53-.15,1,1,0,0,0,.48-.87,1.18,1.18,0,0,1,.74-1.06,1.15,1.15,0,0,1,.63-.06l.6.07C206.46,193.33,206.26,193.35,206.06,193.37Zm-12.43,40.5.31,0a1,1,0,0,1,.51-.77A1.17,1.17,0,0,1,195,233c.2,0,.4,0,.6-.08l-.6-.08a1.3,1.3,0,0,0-.64.07A1.14,1.14,0,0,0,193.63,233.87Zm23.42-58.58c-.2,0-.4-.06-.6-.08a1.18,1.18,0,0,0-.64.06,1.17,1.17,0,0,0-.73,1.06,1,1,0,0,1-.49.87,1.09,1.09,0,0,1-.52.15c-.2,0-.4,0-.6.08l.6.08a1.17,1.17,0,0,0,1.33-1.17,1,1,0,0,1,.51-.84,1.3,1.3,0,0,1,.54-.14Zm5.32,34.58c-.2,0-.4-.05-.6-.08a1.31,1.31,0,0,0-.64.07,1.16,1.16,0,0,0-.73,1.06,1,1,0,0,1-.48.86,1.06,1.06,0,0,1-.53.15c-.2,0-.4,0-.6.08.2,0,.4.05.6.08a1.15,1.15,0,0,0,1.33-1.17,1,1,0,0,1,.52-.84,1.12,1.12,0,0,1,.53-.13C222,209.92,222.17,209.91,222.37,209.87Zm-12,16.8c-.2,0-.4-.06-.6-.08a1.15,1.15,0,0,0-1.37,1.12,1,1,0,0,1-.48.87,1.31,1.31,0,0,1-.53.15c-.2,0-.4,0-.6.08l.6.07a1.1,1.1,0,0,0,.64-.08,1.16,1.16,0,0,0,.69-1.08,1,1,0,0,1,.52-.84,1.3,1.3,0,0,1,.53-.14Zm18,5.68c.2,0,.4.05.6.08a1.29,1.29,0,0,0,.64-.08,1.19,1.19,0,0,0,.69-1.09,1,1,0,0,1,.52-.84l.12-.06v-.23a.86.86,0,0,0-.23.06,1.2,1.2,0,0,0-.73,1.07,1,1,0,0,1-.48.86,1.17,1.17,0,0,1-.53.15C228.73,232.3,228.53,232.31,228.33,232.35Zm-27.89-22c-.2,0-.4,0-.6-.08a1.15,1.15,0,0,0-.63.06,1.18,1.18,0,0,0-.74,1.07,1,1,0,0,1-.48.86,1.17,1.17,0,0,1-.53.15c-.2,0-.4,0-.6.08.2,0,.4,0,.6.08a1.29,1.29,0,0,0,.64-.08,1.19,1.19,0,0,0,.69-1.09,1,1,0,0,1,.52-.84,1.15,1.15,0,0,1,.53-.13Zm14.75-23.81c.12.17.25.32.37.48a1.36,1.36,0,0,0,.5.41,1.16,1.16,0,0,0,1.26-.24,1,1,0,0,1,1-.27,1.23,1.23,0,0,1,.48.27c.16.12.31.25.48.37-.12-.17-.25-.32-.37-.48a1.2,1.2,0,0,0-.51-.4,1.18,1.18,0,0,0-1.26.28,1,1,0,0,1-1,.23,1.22,1.22,0,0,1-.47-.28C215.51,186.79,215.36,186.65,215.19,186.54Zm8-13.39c.12.18.25.32.37.49a1.25,1.25,0,0,0,.5.4,1.17,1.17,0,0,0,1.27-.23,1,1,0,0,1,.56-.29l-.06-.29a1.15,1.15,0,0,0-.72.35,1,1,0,0,1-1,.23,1.31,1.31,0,0,1-.48-.28C223.51,173.4,223.36,173.27,223.19,173.15Zm-40.38,36.69c.11.17.25.32.37.48a1.22,1.22,0,0,0,.49.4,1.15,1.15,0,0,0,1.27-.23,1,1,0,0,1,1-.27,1.23,1.23,0,0,1,.48.27c.16.12.31.25.48.37-.12-.17-.25-.32-.37-.48a1.2,1.2,0,0,0-.51-.4,1.18,1.18,0,0,0-1.26.28,1,1,0,0,1-1,.23,1.15,1.15,0,0,1-.47-.28C183.13,210.09,183,210,182.81,209.84Zm22.75-43a.9.9,0,0,1,.54,0,1.1,1.1,0,0,1,.48.27l.48.37c-.11-.17-.24-.32-.36-.49a1.34,1.34,0,0,0-.51-.39l-.27-.06Zm-1.76,12.19c0,.2-.05.4-.07.6a1.15,1.15,0,0,0,.06.63,1.18,1.18,0,0,0,1.06.74,1,1,0,0,1,.87.48,1.26,1.26,0,0,1,.15.53c0,.2,0,.4.07.6,0-.2.06-.4.08-.6a1.1,1.1,0,0,0-.08-.64,1.19,1.19,0,0,0-1.08-.7.93.93,0,0,1-.84-.51,1.16,1.16,0,0,1-.14-.53C203.85,179.45,203.84,179.25,203.8,179.05Zm4.77,35.2c0,.2,0,.4-.08.6a1.3,1.3,0,0,0,.07.64,1.17,1.17,0,0,0,1.06.73,1,1,0,0,1,.87.49,1.22,1.22,0,0,1,.15.52c0,.2,0,.4.07.6,0-.2.06-.4.08-.6a1.12,1.12,0,0,0-.08-.64,1.18,1.18,0,0,0-1.08-.69,1,1,0,0,1-.85-.51,1.3,1.3,0,0,1-.13-.54C208.62,214.65,208.61,214.45,208.57,214.25ZM228,215.51c0,.2,0,.4-.08.6a1.3,1.3,0,0,0,.07.64,1.15,1.15,0,0,0,1.06.73,1,1,0,0,1,.86.49,1,1,0,0,1,.15.52c0,.2,0,.4.08.6,0-.2,0-.4.08-.6a1.15,1.15,0,0,0-1.17-1.33,1,1,0,0,1-.84-.51,1.16,1.16,0,0,1-.13-.54C228,215.91,228,215.71,228,215.51Zm-1.09-30.35a1.17,1.17,0,0,0,1.07.73h0c0-.1,0-.21,0-.32a1,1,0,0,1-.83-.52,1.26,1.26,0,0,1-.13-.53c0-.2,0-.4-.08-.6,0,.2,0,.4-.08.6A1.19,1.19,0,0,0,226.89,185.16Zm-11.5-21.77c0,.2-.06.4-.08.6a1.15,1.15,0,0,0,.06.63,1.18,1.18,0,0,0,1.06.74,1,1,0,0,1,.87.48,1.17,1.17,0,0,1,.15.53c0,.2,0,.4.08.6,0-.2.05-.4.08-.6a1.18,1.18,0,0,0-1.17-1.34,1,1,0,0,1-.84-.51,1.3,1.3,0,0,1-.14-.53C215.44,163.79,215.42,163.59,215.39,163.39Zm3.09,31.74c0,.2,0,.4-.08.6a1.28,1.28,0,0,0,.07.64,1.15,1.15,0,0,0,1.06.73,1,1,0,0,1,.86.49,1,1,0,0,1,.15.53c0,.2,0,.4.08.6,0-.2,0-.4.08-.6a1.19,1.19,0,0,0-.08-.64,1.21,1.21,0,0,0-1.09-.7,1,1,0,0,1-.84-.51,1.16,1.16,0,0,1-.13-.54C218.53,195.53,218.52,195.33,218.48,195.13ZM190.7,199.4c0,.2,0,.4-.08.6a1.3,1.3,0,0,0,.07.64,1.17,1.17,0,0,0,1.06.73,1,1,0,0,1,.87.49,1.09,1.09,0,0,1,.14.52c0,.2.05.4.08.6,0-.2,0-.4.08-.6a1.21,1.21,0,0,0-.08-.64,1.18,1.18,0,0,0-1.08-.69,1,1,0,0,1-.85-.51,1.3,1.3,0,0,1-.13-.54C190.75,199.8,190.74,199.6,190.7,199.4Zm25.63,36h.09c0-.1,0-.21,0-.31C216.36,235.15,216.34,235.26,216.33,235.36ZM181.4,219.68c0,.2-.05.4-.08.6a1.26,1.26,0,0,0,.07.63,1.18,1.18,0,0,0,1.06.74,1,1,0,0,1,.87.48,1.26,1.26,0,0,1,.15.53c0,.2,0,.4.07.6,0-.2.06-.4.08-.6a1.1,1.1,0,0,0-.08-.64,1.19,1.19,0,0,0-1.08-.7,1,1,0,0,1-.85-.51,1.29,1.29,0,0,1-.13-.53C181.45,220.08,181.44,219.88,181.4,219.68Zm14.42-31.61c-.12-.17-.25-.32-.37-.48a1.19,1.19,0,0,0-.5-.41,1.17,1.17,0,0,0-1.27.23,1,1,0,0,1-1,.27,1.08,1.08,0,0,1-.48-.26,5.58,5.58,0,0,0-.48-.37c.12.17.25.32.37.48a1.11,1.11,0,0,0,.51.39,1.2,1.2,0,0,0,1.26-.27,1,1,0,0,1,1-.24,1.4,1.4,0,0,1,.47.29C195.5,187.82,195.65,188,195.82,188.07ZM211.67,204c-.12-.17-.25-.32-.37-.48a1.25,1.25,0,0,0-.5-.4,1.15,1.15,0,0,0-1.27.23,1,1,0,0,1-.95.27,1.1,1.1,0,0,1-.48-.27c-.16-.12-.31-.25-.48-.37.12.17.25.32.37.48a1.2,1.2,0,0,0,.51.4,1.18,1.18,0,0,0,1.26-.28,1,1,0,0,1,1-.23,1.31,1.31,0,0,1,.48.28A5.58,5.58,0,0,0,211.67,204Zm11,21.62c-.11-.16-.24-.32-.37-.48a1.16,1.16,0,0,0-.49-.4,1.17,1.17,0,0,0-1.27.23,1,1,0,0,1-1,.27,1,1,0,0,1-.47-.27c-.16-.12-.31-.25-.48-.36.11.16.24.32.37.48a1.27,1.27,0,0,0,.51.39,1.17,1.17,0,0,0,1.25-.28,1,1,0,0,1,1-.23,1.12,1.12,0,0,1,.47.29Zm-26-2.22c-.12-.17-.25-.32-.37-.48a1.25,1.25,0,0,0-.5-.4,1.15,1.15,0,0,0-1.27.23,1,1,0,0,1-1,.27,1.1,1.1,0,0,1-.48-.27c-.16-.12-.31-.25-.48-.37.12.17.25.32.37.48a1.2,1.2,0,0,0,.51.4,1.18,1.18,0,0,0,1.26-.28,1,1,0,0,1,.95-.23,1.19,1.19,0,0,1,.48.28A5.58,5.58,0,0,0,196.66,223.4ZM182,232.35c-.11-.17-.24-.32-.36-.48a1.27,1.27,0,0,0-.5-.41,1.18,1.18,0,0,0-1.27.24,1,1,0,0,1-1,.27,1.21,1.21,0,0,1-.48-.27c-.16-.12-.31-.25-.48-.37a5.58,5.58,0,0,0,.37.48,1.2,1.2,0,0,0,.51.4,1.19,1.19,0,0,0,1.25-.28,1,1,0,0,1,1-.23,1.19,1.19,0,0,1,.48.28Zm45-28.86c.11.17.25.32.37.48a1.17,1.17,0,0,0,.5.4,1.2,1.2,0,0,0,1.26-.28,1,1,0,0,1,.58-.27,2.83,2.83,0,0,1,0-.29,1.2,1.2,0,0,0-.78.33,1,1,0,0,1-.95.27,1.21,1.21,0,0,1-.48-.27Z" style="fill:#fff"></path><path d="M231.34,149.64c-.17,3.35,2.07,6.18,5,6.33s5.46-2.45,5.62-5.8-2.08-6.18-5-6.32S231.5,146.3,231.34,149.64Z" style="fill:#455a64"></path><path d="M229.6,149.77c-.18,3.72,2.31,6.87,5.58,7s6.07-2.73,6.26-6.45-2.32-6.88-5.59-7S229.79,146,229.6,149.77Z" style="fill:#c7c7c7"></path><path d="M219.85,176.69c-3.41-.28-7.27-6.89-8.15-11.51-.06-.31,1.28-3,2.74-6.37.88-2,1.81-4.34,2.51-6.49.14-.45,12.45,7.66,12.45,7.66a35.94,35.94,0,0,0-4,7.85,5.44,5.44,0,0,0-.2.92,1,1,0,0,1,0,.15C224.92,170.67,223.15,177,219.85,176.69Z" style="fill:#eb9481"></path><path d="M223.78,168.52a7.63,7.63,0,0,0,1.41.38,1,1,0,0,0,0-.15,5.44,5.44,0,0,1,.2-.92,36.43,36.43,0,0,1,4-7.85s-10-6.58-12.08-7.56C216.93,155,215.86,165.76,223.78,168.52Z" style="fill:#263238"></path><path d="M218.8,136.83c-2.67,4.54-3.5,19.31-.77,23.31,3.95,5.79,12.11,8.22,17.46,3.08,5.18-5,5.91-24.24,2.71-28.05C233.49,129.57,222.75,130.13,218.8,136.83Z" style="fill:#eb9481"></path><path d="M236.13,149.26s.08.06.07.1c-.13,1-.11,2.14.75,2.56,0,0,0,.06,0,.05C235.86,151.71,235.85,150.18,236.13,149.26Z" style="fill:#263238"></path><path d="M237.12,148.32c1.61,0,1.42,3.24-.07,3.21S235.78,148.28,237.12,148.32Z" style="fill:#263238"></path><path d="M228.1,146.11c.44-.07.84-.21,1.28-.32a2.07,2.07,0,0,0,1.25-.57.68.68,0,0,0,0-.83,1.68,1.68,0,0,0-1.67-.34,2.46,2.46,0,0,0-1.53.93A.73.73,0,0,0,228.1,146.11Z" style="fill:#263238"></path><path d="M238.52,146.83c-.43-.12-.82-.3-1.24-.46a2.12,2.12,0,0,1-1.17-.71.67.67,0,0,1,.12-.82,1.69,1.69,0,0,1,1.7-.15,2.49,2.49,0,0,1,1.41,1.09A.73.73,0,0,1,238.52,146.83Z" style="fill:#263238"></path><path d="M228.31,157.58c.21.26.42.6.78.67a2.55,2.55,0,0,0,1.09-.15s.06,0,0,.06a1.34,1.34,0,0,1-1.31.41,1.06,1.06,0,0,1-.69-.95C228.2,157.56,228.28,157.54,228.31,157.58Z" style="fill:#263238"></path><path d="M229.65,154.72a3.38,3.38,0,0,0,2.1,1.72,4.12,4.12,0,0,0,1.21.18h.46a.27.27,0,0,0,.22-.21h0v-.11h0v-.09c.09-.76.13-1.93.13-1.93.27.17,1.63.95,1.65.55a51.22,51.22,0,0,0-.29-10.35.1.1,0,0,0-.19,0c-.25,3.18.06,6.39-.15,9.6a5.67,5.67,0,0,0-1.54-.64c-.11,0,0,2.26-.11,2.6a.08.08,0,0,1,0,0,4.71,4.71,0,0,1-3.39-1.43C229.68,154.57,229.6,154.63,229.65,154.72Z" style="fill:#263238"></path><path d="M227.69,148.6a3.14,3.14,0,0,1,.87-.06,3.4,3.4,0,0,1,.87.19,2.49,2.49,0,0,1,.79.51,2.06,2.06,0,0,1,.51.82l.2.56-.58-.16a6.18,6.18,0,0,0-1.24-.2,2.48,2.48,0,0,0-1.27.22,1.89,1.89,0,0,1,1.24-.69,3.75,3.75,0,0,1,1.45.07l-.38.4a2.14,2.14,0,0,0-1-1A6.36,6.36,0,0,0,227.69,148.6Z" style="fill:#263238"></path><path d="M229,151.19a5.59,5.59,0,0,0,1.34-.27c.1,0,.5-.25.49-.32a2.33,2.33,0,0,0-.13-.67,1.71,1.71,0,0,1,.26.67.9.9,0,0,1-.55.51A2.74,2.74,0,0,1,229,151.19Z" style="fill:#263238"></path><path d="M221.65,146.5c1.28-2.77.14-7.76,1.71-8.9,3.41-2.47,9.21,3.56,13.58,4.05s5.93-2.1,5.53-5.62-3.08-6.14-7.76-7.35a18,18,0,0,0-12.13,1.56s1.25-1.6.91-2.18-2.6.86-3.31,1.5a6.52,6.52,0,0,0-1.25,1.93,7.05,7.05,0,0,0-1.91-.41,4.11,4.11,0,0,0-2.63.86c-.1.25,1.42.61,2.49.78,0,0-2.29,2.46-2.49,4.75s2.22,13.55,3.06,13.76C218.53,151.5,221.13,147.63,221.65,146.5Z" style="fill:#263238"></path><path d="M217.33,132.48s.09,0,0,.07a7.29,7.29,0,0,0-2.64,3,9.11,9.11,0,0,0-.54,4.71c.35,3.08,1.54,6,2.52,8.88,0,.08-.11.13-.15.05a32.07,32.07,0,0,1-2.72-9.56C213.64,136.83,214.61,133.75,217.33,132.48Z" style="fill:#263238"></path><path d="M223.31,136.47a10.38,10.38,0,0,1,3.82.65,15,15,0,0,1,3.12,2,14.85,14.85,0,0,0,7.6,3s0,0,0,0a12.86,12.86,0,0,1-7.12-2.33,34.13,34.13,0,0,0-3.22-2.16,13.54,13.54,0,0,0-4.21-.94A.12.12,0,0,1,223.31,136.47Z" style="fill:#263238"></path><path d="M220,149.65s-2.21-5.3-4.54-4.61-1.39,7.88.86,9.33a2.55,2.55,0,0,0,3.63-.61Z" style="fill:#eb9481"></path><path d="M215.78,147.09a0,0,0,0,0,0,.06c1.57,1.08,2.12,2.87,2.39,4.66a1.4,1.4,0,0,0-2-.83c-.06,0,0,.1,0,.1a1.58,1.58,0,0,1,1.57.91,7.32,7.32,0,0,1,.51,1.54c0,.17.34.15.32,0v0C219.11,151.27,218.08,147.83,215.78,147.09Z" style="fill:#263238"></path><path d="M217,145.44s-.56-7.69,1.6-11.72c2.41-4.48,6.9-6,12-5.5,0,0-4.67.14-8.48,5.21-2,2.72-2.67,12.22-2.67,12.22Z" style="fill:#c7c7c7"></path><path d="M223.79,149.17c0,3.73-2.62,6.77-5.89,6.78s-5.94-3-6-6.72,2.62-6.76,5.89-6.78S223.77,145.44,223.79,149.17Z" style="fill:#c7c7c7"></path><path d="M222.06,149c0,3.35-2.35,6.08-5.29,6.1s-5.34-2.69-5.36-6,2.35-6.08,5.29-6.09S222,145.62,222.06,149Z" style="fill:#455a64"></path><path d="M219.16,149a3.3,3.3,0,1,1-3.29-3.71A3.52,3.52,0,0,1,219.16,149Z" style="fill:#37474f"></path><path d="M272.3,154.49c1.9-3.49,1.51-9.66,4.41-9.08,2.58.53,2.44,4.83,2.44,4.83s1.73-4.8,4.35-3.44,1.49,6,1.49,6,1.83-4.32,4.34-2.79,1.73,6,1.73,6,1.15-.91,2.44,1c1.85,2.69-.47,9.31-2.21,12.68-4.14,8-11.46,13.74-13,15.31l-21-12.28s.78-7.38,1.63-11.07,7-15.09,10-13.74-1.58,9.31-2.26,11.51-.28,2.72.79,2C268.19,160.86,271.46,156,272.3,154.49Z" style="fill:#eb9481"></path><path d="M279,150.43c-.63,6-1.94,8.49-5.61,13.14a.1.1,0,0,0,.14.13c4-4.23,6.09-7.14,5.76-13.25C279.31,150.15,279.07,150.15,279,150.43Z" style="fill:#263238"></path><path d="M285,152.57c-1.2,6.15-2.59,8.88-6.07,14-.05.08.06.17.12.1,3.84-4.77,5.86-7.72,6.25-14C285.28,152.39,285,152.29,285,152.57Z" style="fill:#263238"></path><path d="M291,156.06c-1.59,5.87-3,8.93-7,13.5a.11.11,0,0,0,.15.15c4.56-4.25,6.33-8.06,7-13.58C291.22,155.75,291.1,155.69,291,156.06Z" style="fill:#263238"></path><path d="M278.34,185c-2.95,3.15-28.19,28-38.44,28.05s-30.6-31-33.34-37.32.85-10.59,7.47-5.91,24.63,19.52,25.77,19.56,14-14.53,17.55-16.66S279.81,183.42,278.34,185Z" style="fill:#eb9481"></path><path d="M245.74,182.88l11.76,24.24s-11.52,6.06-17.56,6.75-21.63-15.88-31.13-32.4-1.6-18,8.74-9.86c8.15,6.45,21.51,16.09,22,16.34S245.74,182.88,245.74,182.88Z" style="fill:#FFC727"></path><path d="M216.45,175.36a1.3,1.3,0,0,0-.54.14,1,1,0,0,0-.51.84,1.17,1.17,0,0,1-1.33,1.17l-.6-.08c.2,0,.4-.06.6-.08a1.09,1.09,0,0,0,.52-.15,1,1,0,0,0,.49-.87,1.17,1.17,0,0,1,.73-1.06,1.18,1.18,0,0,1,.64-.06c.2,0,.4,0,.6.08Zm30.72,24.76-.6-.07a1.15,1.15,0,0,0-.63.06,1.18,1.18,0,0,0-.74,1.06,1,1,0,0,1-.48.87,1.31,1.31,0,0,1-.53.15l-.6.07c.2,0,.4.06.6.08a1.1,1.1,0,0,0,.64-.08,1.19,1.19,0,0,0,.7-1.08.93.93,0,0,1,.51-.84,1.16,1.16,0,0,1,.53-.14C246.77,200.18,247,200.16,247.17,200.12Zm-32-13.58c.12.17.25.32.37.48a1.36,1.36,0,0,0,.5.41,1.16,1.16,0,0,0,1.26-.24,1,1,0,0,1,1-.27,1.23,1.23,0,0,1,.48.27c.16.12.31.25.48.37-.12-.17-.25-.32-.37-.48a1.2,1.2,0,0,0-.51-.4,1.18,1.18,0,0,0-1.26.28,1,1,0,0,1-1,.23,1.22,1.22,0,0,1-.47-.28C215.51,186.79,215.36,186.65,215.19,186.54Zm18.42,8,.37.48a1.25,1.25,0,0,0,.5.4,1.17,1.17,0,0,0,1.27-.23,1,1,0,0,1,.95-.27,1,1,0,0,1,.48.27c.16.12.31.25.48.37-.12-.17-.25-.32-.37-.48a1.2,1.2,0,0,0-.51-.4,1.18,1.18,0,0,0-1.26.28,1,1,0,0,1-1,.23,1.31,1.31,0,0,1-.48-.28A5.58,5.58,0,0,0,233.61,194.51Zm19.26,10.9c.12.17.25.32.37.48a1.19,1.19,0,0,0,.5.41,1.17,1.17,0,0,0,1.27-.23,1,1,0,0,1,1-.27,1.08,1.08,0,0,1,.48.26,5.58,5.58,0,0,0,.48.37l-.37-.48a1.11,1.11,0,0,0-.51-.39,1.18,1.18,0,0,0-1.26.28,1,1,0,0,1-1,.23,1.25,1.25,0,0,1-.47-.29C253.19,205.66,253,205.53,252.87,205.41ZM206.39,167a.9.9,0,0,1,.19.15l.48.37c-.11-.17-.24-.32-.36-.49l-.09-.09Zm20.52,17c0,.2,0,.4-.08.6a1.41,1.41,0,0,0,.06.64,1.17,1.17,0,0,0,1.07.73,1,1,0,0,1,.86.49,1,1,0,0,1,.15.52c0,.2,0,.4.08.6,0-.2,0-.4.08-.6a1.19,1.19,0,0,0-.08-.64,1.2,1.2,0,0,0-1.09-.69,1,1,0,0,1-.84-.52,1.09,1.09,0,0,1-.13-.53C227,184.32,227,184.12,226.91,183.92Zm-7.65,12.82.29.36a1,1,0,0,1,.84.49,1,1,0,0,1,.15.53l0,.23.09.11c0-.12,0-.23,0-.34a1.23,1.23,0,0,0-.08-.65,1.21,1.21,0,0,0-1.09-.69A.84.84,0,0,1,219.26,196.74Zm-.85-1.08.16.21a.66.66,0,0,1,0-.14c0-.19,0-.4-.08-.6C218.45,195.31,218.43,195.49,218.41,195.66Zm27.27-8.61c0,.2-.05.4-.08.6a1.31,1.31,0,0,0,.07.64,1.16,1.16,0,0,0,1.06.73,1,1,0,0,1,.86.48,1.06,1.06,0,0,1,.15.53c0,.2,0,.4.08.6,0-.2.05-.4.08-.6a1.15,1.15,0,0,0-1.17-1.33,1,1,0,0,1-.84-.52,1.12,1.12,0,0,1-.13-.53C245.73,187.45,245.72,187.25,245.68,187.05Zm-7.07,20.16c0,.2-.05.4-.07.6a1.18,1.18,0,0,0,.06.64,1.17,1.17,0,0,0,1.06.73,1,1,0,0,1,.87.49,1.22,1.22,0,0,1,.15.52c0,.2,0,.4.07.6,0-.2.06-.4.08-.6a1.1,1.1,0,0,0-.08-.64,1.18,1.18,0,0,0-1.08-.69,1,1,0,0,1-.84-.52,1.13,1.13,0,0,1-.14-.53C238.67,207.61,238.65,207.41,238.61,207.21Zm-7.54-2.7a5.58,5.58,0,0,0-.37-.48,1.25,1.25,0,0,0-.49-.41,1.18,1.18,0,0,0-1.27.24,1,1,0,0,1-1,.27,1.25,1.25,0,0,1-.47-.27l-.48-.37a5.58,5.58,0,0,0,.37.48,1.2,1.2,0,0,0,.51.4,1.19,1.19,0,0,0,1.25-.28,1,1,0,0,1,1-.23,1.09,1.09,0,0,1,.47.28C230.75,204.26,230.91,204.4,231.07,204.51Z" style="fill:#fff"></path><path d="M208.38,183.11c-.06-.09.08-.17.14-.09,2.78,3.47,5.49,7,8.34,10.41s5.7,6.69,8.6,10l2.38,2.69c.85.95,1.61,2,2.5,2.91.06.07,0,.17-.1.1-.78-.8-1.67-1.5-2.47-2.29s-1.54-1.54-2.29-2.33c-1.53-1.59-3-3.22-4.49-4.89-2.42-2.8-4.74-5.69-7-8.63l-.65-.54-1.3-1.18a29.14,29.14,0,0,1-2.46-2.51c-.06-.08,0-.18.11-.11.89.75,1.75,1.56,2.58,2.37l.73.7-.27-.36Q210.45,186.31,208.38,183.11Z" style="fill:#263238"></path><polygon points="248.54 179.44 243.52 183.96 254.87 209.43 260.95 206.36 248.54 179.44" style="fill:#FFC727"></polygon><polygon points="248.54 179.44 243.52 183.96 254.87 209.43 260.95 206.36 248.54 179.44" style="opacity:0.1"></polygon><path d="M226.82,178.7a18.2,18.2,0,0,0-2.2-1.93,18,18,0,0,0-2.45-1.58,17.39,17.39,0,0,0,2.19,1.93A18.41,18.41,0,0,0,226.82,178.7Z" style="fill:#263238"></path></g><g id="freepik--character-1--inject-126"><path d="M211.38,462.28c-2.11.66-63.61-.67-65.86-2.17-.86-.55,4.41-58.81,4.41-58.81l39,.75-4.43,39s22.69,10.75,25,12.65S213.48,461.63,211.38,462.28Z" style="fill:#d3766a"></path><path d="M211.38,462.28c-2.11.66-63.61-.67-65.86-2.17-.27-.17-.35-6.09.63-13.79,11.15,1.87,51,8,54.06,6.16,2.16-1.27.25-3.26-1.52-4.59,5.08,2.53,9.82,5,10.8,5.79C211.77,455.58,213.48,461.63,211.38,462.28Z" style="fill:#263238"></path><path d="M185.59,431.67l-38.29-.54s7.59-91.71,7.27-93.47C154.17,335.4,127,228.87,127,228.87h36.55s28.82,99.29,29.85,108.86C195.08,353.18,185.59,431.67,185.59,431.67Z" style="fill:#263238"></path><path d="M150.75,422.49c2.26-.16,4.55-.14,6.81-.17s4.55,0,6.82,0c4.54,0,9.08.11,13.62.24,1.24,0,2.48.07,3.72.13s2.65.29,4,.34c.1,0,.1.16,0,.16-1.11,0-2.23.18-3.34.21s-2.32,0-3.47,0q-3.42,0-6.82,0c-4.54,0-9.08-.1-13.62-.28-2.56-.11-5.15-.14-7.7-.4A.12.12,0,0,1,150.75,422.49Z" style="fill:#37474f"></path><path d="M135,237.48c3.27,11.58,6.26,23.26,9.19,34.93s5.85,23.36,8.76,35q2.17,8.76,4.36,17.52c1.41,5.69,3.05,11.41,3.4,17.28s-.4,12-.9,17.95-1,12-1.53,17.94c-1,12-2.06,23.93-3.36,35.86-.16,1.5-.32,3-.47,4.48,0,.13-.21.13-.2,0,.79-12,1.62-23.93,2.57-35.89q.72-9,1.46-17.93c.5-6,1.19-12,1.38-18a64.37,64.37,0,0,0-2.37-17.66q-2.15-8.57-4.3-17.15-4.38-17.5-8.75-35c-3.24-13.08-6.48-26.19-9.35-39.36A.06.06,0,0,1,135,237.48Z" style="fill:#37474f"></path><path d="M127,228.87s11.66,45.71,19.81,77.88l15.55-77.88Z" style="fill:#37474f"></path><path d="M165.45,462.42c-2.11.66-63.61-.67-65.86-2.17-.86-.55,2.35-58.84,2.35-58.84l38.49.75-1.86,39s22.69,10.75,25,12.66S167.55,461.77,165.45,462.42Z" style="fill:#d3766a"></path><path d="M165.45,462.42c-2.11.66-63.61-.67-65.85-2.17-.28-.17-.21-5.93,0-13.79,11.15,1.87,51.58,8,54.68,6.16,2.16-1.27.25-3.25-1.52-4.59,5.08,2.53,9.82,5,10.8,5.79C165.84,455.72,167.55,461.78,165.45,462.42Z" style="fill:#263238"></path><path d="M162.37,228.86S160.3,254.7,156,261.19a65.42,65.42,0,0,0-10.6,5.28s-2.63,69.12-2.58,73.27c.17,15.53-3.8,91.16-3.8,91.16l-38.61-.36s4-85.53,4-91.22c0-5.5,2.62-40.21,5-70.3,0,0-3.43-9.61-3-14.47.92-11.77,6.2-25.68,6.2-25.68Z" style="fill:#263238"></path><path d="M148.78,253.43c.14-1,.29-1.93.44-2.9.27-1.77.63-3.53.94-5.3.71-4,1.44-8,2.33-12a.09.09,0,0,1,.17,0c-.16,1.6-.34,3.2-.57,4.8s-.38,3.2-.61,4.79c-.44,3.17-.88,6.34-1.42,9.48-.21,1.22-1,3.39.78,3.77,1.38.3,2.4-1.06,2.8-2.2a25.94,25.94,0,0,0,.93-4.37c.29-1.6.54-3.2.77-4.8q.74-5.25,1.6-10.47c0-.1.18-.07.17,0a106.66,106.66,0,0,1-.77,10.72c-.23,1.7-.48,3.4-.77,5.09a18.06,18.06,0,0,1-1.17,4.75,3.86,3.86,0,0,1-2.89,2.32h-.08a.11.11,0,0,1,0,.1c0,.57,0,1.14-.07,1.7s-.17,1.12-.27,1.67a10.81,10.81,0,0,1-.44,1.67,6.32,6.32,0,0,1-.3.76c-.13.26-.3.46-.45.71s-.18,0-.19-.06h0a2.62,2.62,0,0,0,0-.28v-.05h0a4,4,0,0,1,0-.49c0-.28.1-.55.16-.82.12-.53.26-1.07.41-1.6s.26-1.08.4-1.61.32-1.09.44-1.64c0,0,0,0,0-.06a2.51,2.51,0,0,1-2.43-1.52A4.28,4.28,0,0,1,148.78,253.43Z" style="fill:#37474f"></path><path d="M142.32,267.31a30.31,30.31,0,0,1,3.63-2.39,35.28,35.28,0,0,1,4.14-2.15c2.8-1.21,5.67-2,8.56-3,.08,0,.14.11.06.15-2.8,1.11-5.47,2.58-8.17,3.9-1.33.65-2.67,1.27-4,1.87s-2.71,1.3-4.1,1.8C142.32,267.54,142.23,267.38,142.32,267.31Z" style="fill:#37474f"></path><path d="M120.52,245.74c2,0,8.76-.5,10.77-2.75a13.81,13.81,0,0,0,2.52-4.54,45.2,45.2,0,0,0,1.52-5.5c0-.09.16-.06.16,0a21.62,21.62,0,0,1-.79,6.25,7.67,7.67,0,0,1-7.84,6.81,24.46,24.46,0,0,1-6.34-.08A.11.11,0,1,1,120.52,245.74Z" style="fill:#37474f"></path><path d="M167,246.27a6.62,6.62,0,0,1-2.59-1.57c-1.49-2.24-1.85-9.35-2-11.22,0-.09,0-.06,0,0,0,2.1.07,4.23.24,6.25a22.5,22.5,0,0,0,.77,4.86c.46,1.28,3,2.15,3.61,1.87C167,246.46,167,246.27,167,246.27Z" style="fill:#37474f"></path><path d="M102.15,423.06c2.27-.17,4.55-.14,6.82-.17s4.54,0,6.82,0c4.54,0,9.08.11,13.62.24,1.24,0,2.48.07,3.72.13s2.65.29,4,.34c.1,0,.1.16,0,.16-1.11,0-2.23.17-3.34.2s-2.32.05-3.48.05l-6.81,0c-4.54,0-9.08-.1-13.62-.29-2.56-.1-5.15-.13-7.7-.39A.12.12,0,0,1,102.15,423.06Z" style="fill:#37474f"></path><path d="M106.87,418h0a.47.47,0,0,1-.44-.5l8.71-149.67c-.11-.65-2.57-9-2.78-13.28-.24-4.52,4.43-22.11,4.63-22.86a.47.47,0,0,1,.58-.33.46.46,0,0,1,.33.57c-.05.18-4.83,18.2-4.6,22.57s2.77,13.15,2.78,13.23-8.71,149.82-8.71,149.82A.48.48,0,0,1,106.87,418Z" style="fill:#37474f"></path><path d="M120.39,154a4.22,4.22,0,0,0-1.09,1.25c-1.25,2.19-.7,4.84.21,7s2.58,4.62,2.75,7.22a4.24,4.24,0,0,1-.74,2.9,3.88,3.88,0,0,1-3,1.28c-1.17.09-2.58-.08-3.54.75a3.31,3.31,0,0,0-.93,2.82c.24,2.6,2.59,4.43,3.76,6.62a13.18,13.18,0,0,1,1.48,7.67,12.74,12.74,0,0,1-2.89,6.73,12.39,12.39,0,0,1-2.67,2.44c-1.12.75-2.39,1.25-3.55,2a4.65,4.65,0,0,0-2.39,2.89c-.18,1,1.17,4.49,5.07,6.9.28.17-.05.67-.39.59a14.6,14.6,0,0,1-2-.51A17.64,17.64,0,0,1,99.16,201.1a18.43,18.43,0,0,1-.52-8.88,29.81,29.81,0,0,0,.78-4.95,9.33,9.33,0,0,0-1-4.24c-1.26-2.53-3.11-4.73-3.92-7.47a15.4,15.4,0,0,1-.23-7.57,18.36,18.36,0,0,1,9.23-12.15C108.05,153.34,120.63,153.76,120.39,154Z" style="fill:#263238"></path><path d="M120.26,154.06a7.24,7.24,0,0,0-1.86,2.68,5.94,5.94,0,0,0-.18,2.93,16.59,16.59,0,0,0,2.75,5.9c1.08,1.74,2.13,3.65,2,5.77a4.84,4.84,0,0,1-.83,2.56,3.72,3.72,0,0,1-2.51,1.44c-1.81.33-4.2.15-5.27,2s.18,4,1,5.57c2.1,3.87,5.39,8.58,3.26,13.14a16.18,16.18,0,0,1-5.17,5.74c-1.45,1.08-3.3,2.44-3.39,4.42,0,.07.1.06.11,0,.13-2.09,2.22-3.13,3.75-4.17a17.08,17.08,0,0,0,4.7-4.58,8.39,8.39,0,0,0,1.2-6.25,19.76,19.76,0,0,0-2.54-6.22c-.57-1-1.17-2-1.71-3a7.19,7.19,0,0,1-1-3,2.45,2.45,0,0,1,1.6-2.44,13.46,13.46,0,0,1,3.16-.59,4.87,4.87,0,0,0,2.61-1.06,4.6,4.6,0,0,0,1.26-1.93,7.14,7.14,0,0,0-.36-5.14c-1-2.29-2.71-4.18-3.67-6.48a7.18,7.18,0,0,1-.6-3.76,7.28,7.28,0,0,1,1.84-3.36A.13.13,0,0,0,120.26,154.06Z" style="fill:#263238"></path><path d="M101.18,155.34a15,15,0,0,0-7.63,12.9,18.36,18.36,0,0,0,1.89,8.45c1.17,2.47,2.71,4.83,3.33,7.52.69,3-.37,5.8-1,8.68a16.48,16.48,0,0,0,0,7.06,17.51,17.51,0,0,0,7.7,11c.5.31,1,.59,1.53.85a.06.06,0,1,0,0-.1,16.85,16.85,0,0,1-8.32-10.47,16.34,16.34,0,0,1-.51-6.67c.37-2.76,1.55-5.38,1.55-8.19,0-2.64-1.19-5.07-2.4-7.34a24.65,24.65,0,0,1-3-7.76,15.06,15.06,0,0,1,5.26-14.1c4.71-3.7,10.94-3.78,16.62-3.17l2.28.26c.09,0,.11-.12,0-.13C112.82,153.17,106.53,152.55,101.18,155.34Z" style="fill:#263238"></path><path d="M121.14,150.91a2.57,2.57,0,0,0-2.51.4c-.34.5,0,5.2.88,5.93s2.49-.77,2.49-.77Z" style="fill:#FFC727"></path><path d="M140.58,173.52c18.45-12.75,30.2-17.69,36-18.21,11.77-1.06,16.3,7.77,15.61,11-1.9,8.74-30.11,16.18-44.55,18.17C133.59,186.4,136.52,176.32,140.58,173.52Z" style="fill:#d3766a"></path><path d="M172.73,173.06c-5.23-4.76-1.25-17.74,3.87-39.23.9-3.77,27.48-10.92,27.65-6.78.2,5.22-6.06,29.16-8.93,34.88C189.66,173.2,178.83,178.61,172.73,173.06Z" style="fill:#d3766a"></path><path d="M202.66,133.25c1-2.82,4.29-16.17,4.39-20.1s-.47-15.22-3.46-15.6-3.1,3-3.1,3-1-4.74-4-4.84-3,5.07-3,5.07S192,95.94,189,96.06s-2.17,5.31-2.17,5.31-1-4.44-3.52-3.29c-3,1.39-.12,9.35-.55,13.68-.09,1-3.38,19.75-3.38,19.75Z" style="fill:#d3766a"></path><path d="M186.75,100.92c2.09,5.87,2,8.79.65,14.77,0,.11.14.18.18.06,1.85-5.73,2.5-9.38-.55-14.94C186.88,100.54,186.65,100.64,186.75,100.92Z" style="fill:#263238"></path><path d="M193.23,100.27c1.64,6.28,1.56,9.45.62,15.81,0,.09.13.13.15,0,1.45-6.17,2-9.83-.44-15.88C193.45,100,193.16,100,193.23,100.27Z" style="fill:#263238"></path><path d="M200.43,100.82c1.15,6.19,1.21,9.68-.5,15.74a.12.12,0,0,0,.22.07c2.34-6,2.3-10.35.47-15.82C200.5,100.43,200.36,100.43,200.43,100.82Z" style="fill:#263238"></path><path d="M177.32,134.66s-2.73-7.3-3.22-10.77,2.43-17.09,5.41-16.63c3.85.61,3.7,8.8,3.11,12.8,0,0,8.89,1.39,10.06,7.29S177.32,134.66,177.32,134.66Z" style="fill:#d3766a"></path><path d="M180.51,107.78c3.11,3.07,2,8.28,1.71,12.21a.36.36,0,0,0,.44.39c3.69.83,8.65,3.07,10.16,6.77a.09.09,0,0,0,.17-.06c-1.08-4.18-5.77-6.78-9.87-7.43.36-4,1.25-9.3-2.58-11.92C180.52,107.73,180.49,107.76,180.51,107.78Z" style="fill:#263238"></path><path d="M158.47,208.63l5.08,20.26-51,0s1.8-35.5,13.8-51.18c6-7.84,11.28-7.22,16.73-2.62,1.37,1.17,15,15.22,17.32,22.67A11.63,11.63,0,0,1,158.47,208.63Z" style="fill:#FFC727"></path><path d="M151.28,206.77a36.71,36.71,0,0,0-6.24,2.12c-1,.46-2,1-2.94,1.52-.48.27-1,.52-1.46.76a6,6,0,0,1-1.6.6s0,.1,0,.09a9.27,9.27,0,0,0,1.58-.24,10.81,10.81,0,0,0,1.47-.55c1-.46,2-1,3-1.44,2.05-.94,4.1-1.89,6.2-2.65C151.43,207,151.38,206.74,151.28,206.77Z" style="fill:#263238"></path><path d="M156.9,208.37a40.33,40.33,0,0,0-5.38.4,26.5,26.5,0,0,0-2.65.55c-.42.1-.83.22-1.25.34s-.89.34-1.35.47c-.05,0,0,.1,0,.09.44-.1.89-.12,1.33-.19l1.33-.22,2.66-.43c1.78-.31,3.54-.59,5.33-.83C157,208.54,157,208.37,156.9,208.37Z" style="fill:#263238"></path><path d="M131,175.29c.38.92,5.95,6.42,10.3,5.51,1.42-.29.14-8.1.14-8.1l0-.6.52-8.37-10.47-4.57-1.5-.59s0,2.3,0,5.16v.88c0,.42,0,.86,0,1.3s0,.65,0,1,0,.68,0,1A52.92,52.92,0,0,0,131,175.29Z" style="fill:#d3766a"></path><path d="M142,163.73l-.5,8a18,18,0,0,1-11.42-7.23v-.81c0-2.86,0-5.16,0-5.16l1.5.58Z" style="fill:#263238"></path><path d="M148.73,146.46c7,13,0,18.6-2.78,20.1-2.54,1.37-11.35,5.69-19.64-6.48s-4.47-19.5,1.17-22.93S141.75,133.5,148.73,146.46Z" style="fill:#d3766a"></path><path d="M145.73,145.48a8.84,8.84,0,0,1-1,.23,1.68,1.68,0,0,1-1.06,0,.53.53,0,0,1-.27-.58,1.31,1.31,0,0,1,1-.82,1.91,1.91,0,0,1,1.37.1A.56.56,0,0,1,145.73,145.48Z" style="fill:#263238"></path><path d="M136.69,149.73a8.25,8.25,0,0,0,.81-.62,1.59,1.59,0,0,0,.71-.78.53.53,0,0,0-.27-.58,1.31,1.31,0,0,0-1.29.27,1.91,1.91,0,0,0-.79,1.12A.55.55,0,0,0,136.69,149.73Z" style="fill:#263238"></path><path d="M139.74,151.21s-.05.08,0,.12c.48.88.87,2,.21,2.67,0,0,0,.07,0,.05C140.87,153.42,140.33,152,139.74,151.21Z" style="fill:#263238"></path><path d="M138.47,150.68c-1.49.61-.16,3.56,1.22,3S139.73,150.17,138.47,150.68Z" style="fill:#263238"></path><path d="M138,151.09c-.18.29-.3.69-.59.86a1.18,1.18,0,0,1-1.13-.18s-.05,0,0,.06c.24.57.72,1,1.37.86a1.2,1.2,0,0,0,.64-1.48C138.2,151.09,138,151,138,151.09Z" style="fill:#263238"></path><path d="M144.81,148.79s.09,0,.1.05c.4.92,1,1.91,2,1.83a0,0,0,1,1,0,.05C145.82,151.05,145,149.73,144.81,148.79Z" style="fill:#263238"></path><path d="M145.18,147.46c1.41-.79,2.89,2.09,1.58,2.82S144,148.12,145.18,147.46Z" style="fill:#263238"></path><path d="M145.87,147.34c.31,0,.68.2,1,.08s.4-.57.44-1c0,0,0,0,.07,0,.29.55.41,1.21-.07,1.59s-1,.05-1.44-.43C145.75,147.52,145.75,147.33,145.87,147.34Z" style="fill:#263238"></path><path d="M143.8,158.41a1.57,1.57,0,0,0,1,.12,2.67,2.67,0,0,0,.83-.74s.06,0,.06,0a1.33,1.33,0,0,1-.86,1.08,1.06,1.06,0,0,1-1.11-.4C143.7,158.45,143.75,158.4,143.8,158.41Z" style="fill:#263238"></path><path d="M142.24,156.19a3.31,3.31,0,0,0,2.67.21,4.2,4.2,0,0,0,1.08-.54,1.18,1.18,0,0,0,.18-.13l.18-.14a.23.23,0,0,0,.06-.28h0l-.06-.08h0l0-.07c-.35-.67-1-1.64-1-1.64.31,0,1.84-.15,1.63-.48a50.18,50.18,0,0,0-6.06-8.18c-.07-.09-.21,0-.15.11,1.59,2.71,3.65,5.12,5.29,7.83a5.87,5.87,0,0,0-1.61.35c-.07.08,1.24,1.84,1.38,2.16a.08.08,0,0,0,0,0,4.64,4.64,0,0,1-3.54.75C142.19,156.06,142.15,156.15,142.24,156.19Z" style="fill:#263238"></path><path d="M127.51,160.6c3.27-1.75-.78-12.46-1.29-13.77.36.81,2.31,5.08,2.72,5.09a3.56,3.56,0,0,0,.94-.71h0a11.52,11.52,0,0,1-.62-1.56c-.08-.25.34.46.91,1.31.17-.15.34-.31.54-.47a13.66,13.66,0,0,1-1.26-3.37c-.1-.44.89,1.3,2,2.68a44.57,44.57,0,0,1,8-5.82c.81-.44,1.53-.78,2.18-1.06-.6-1.24-1.4-2.5-1.17-2.26a13.75,13.75,0,0,1,1.66,2.06c.35-.15.68-.28,1-.39-.78-1.8-3-4.2-2.5-3.91a13.65,13.65,0,0,1,3.82,3.5c1.32-.36,1.76-.29,1.64-.61a16.24,16.24,0,0,0-8.91-6.9c-6.09-1.88-14.88,1.2-16.6,9.54,0,0-2.62,4.41-1.24,8.76S125.61,161.61,127.51,160.6Z" style="fill:#263238"></path><path d="M128.91,160s-4.77-2.94-6.23-1.07,3.39,7,6,6.9a2.48,2.48,0,0,0,2.53-2.55Z" style="fill:#d3766a"></path><path d="M124.11,160.35s0,.06,0,.06a6.3,6.3,0,0,1,4.55,2.33,1.37,1.37,0,0,0-2,.47s0,.09.08.06a1.54,1.54,0,0,1,1.76-.17,7.59,7.59,0,0,1,1.28.93c.13.11.35-.08.23-.22l0,0C129.12,161.75,126.35,159.62,124.11,160.35Z" style="fill:#263238"></path><path d="M130,164.52a.73.73,0,0,1-.38,1,.73.73,0,1,1,.38-1Z" style="fill:#fff"></path><path d="M125.62,176.69c-25.88,5.25-39.48,11.95-41,14.6-6.45,11,4,15.09,5.45,15.62,9.43,3.52,22.47-5.78,38.55-19.12C134.49,182.88,132,175.4,125.62,176.69Z" style="fill:#d3766a"></path><path d="M98,206.61c3.31-2.55,3.45-12.77-3.73-38.45-1-3.53-24.4-.15-24,3.74.56,4.9,8,22.37,9.91,25.82C86.09,208.12,94.92,209,98,206.61Z" style="fill:#d3766a"></path><path d="M100.21,196.82a94.51,94.51,0,0,0-2.15-13.25,22.88,22.88,0,0,1,2.15,13.25Z" style="fill:#263238"></path><path d="M73.33,177c2,2.18,19.44-4.19,20.39-7.06.17-.54.41-1.34,1.1-3.07h0A42.65,42.65,0,0,1,101.14,156c3.25-3.8,8.51-9.06,6.54-10.88-2.87-2.67-10.32,3.18-14.4,6.8-.63-2.9-1.44-5.33-2.43-6.57-3.3-4.14-23.61,8.23-23.62,13.61C67.22,164.18,71.35,174.78,73.33,177Z" style="fill:#d3766a"></path><path d="M370,87.9h0a11,11,0,0,1-14.27-6.29l-14.39-37a11,11,0,0,1,6.28-14.27h0a11,11,0,0,1,14.28,6.29l14.39,37A11,11,0,0,1,370,87.9Z" style="fill:#37474f"></path><rect x="342.68" y="44.4" width="22.06" height="3.34" transform="translate(7.32 131.21) rotate(-21.23)" style="fill:#455a64"></rect><rect x="352.8" y="70.44" width="22.06" height="3.34" transform="translate(-1.42 136.64) rotate(-21.23)" style="fill:#455a64"></rect><rect x="235.66" y="74.61" width="112.03" height="3.49" transform="translate(-7.85 110.8) rotate(-21.23)" style="fill:#263238"></rect><rect x="42.16" y="132.78" width="194.74" height="5.36" transform="matrix(0.93, -0.36, 0.36, 0.93, -39.58, 59.72)" style="fill:#263238"></rect><rect x="149.07" y="125.87" width="11.66" height="7.23" transform="translate(-36.38 64.88) rotate(-21.23)" style="fill:#37474f"></rect><rect x="229.96" y="94.8" width="9.84" height="7.23" transform="translate(-19.7 91.73) rotate(-21.23)" style="fill:#37474f"></rect><rect x="299.58" y="68.26" width="7.23" height="7.23" transform="translate(-5.45 114.66) rotate(-21.23)" style="fill:#37474f"></rect><rect x="336.91" y="53.76" width="7.23" height="7.23" transform="translate(2.33 127.2) rotate(-21.23)" style="fill:#37474f"></rect><path d="M351.29,53.2a6.19,6.19,0,1,1-8-3.53A6.19,6.19,0,0,1,351.29,53.2Z" style="fill:#263238"></path><path d="M94.65,152.77c-1.42,2.34-3.37-.68-3.37-.68s1.76,5-.65,6.88-4.55-1.95-4.71-2.22c.09.27,1.59,4.93-1,6.55s-4.31-2.46-4.41-2.73c0,.28,0,4-2.23,4.74-3.88,1.33-4.21-8.1-6.73-10.26,0,0-4.16,3.86-4.3,3.94s-.5-9,2.61-12.2a2.86,2.86,0,0,1,3.55-.52s-.47-2.88,1.54-4.21c1-.68,3,.37,3,.37a3.6,3.6,0,0,1,1.58-3.4c1.48-.86,3.27.33,3.27.33s.76-2.36,2.56-2.75C89,135.82,97.7,147.73,94.65,152.77Z" style="fill:#d3766a"></path><path d="M83.14,139.5s0-.09,0-.06a25.54,25.54,0,0,1,8.21,12.8c0,.16-.2.3-.28.13A52.16,52.16,0,0,0,83.14,139.5Z" style="fill:#263238"></path><path d="M78,142.35s0-.11.08-.07a23.94,23.94,0,0,1,8.08,14.52c0,.2-.15.4-.19.18C85.15,153.17,81.08,146,78,142.35Z" style="fill:#263238"></path><path d="M80.4,161c-.91-5.51-3.49-10.18-6.84-14.59,0-.06,0-.12.1-.08,2.22,1.71,4.06,4.75,5.29,7.23A14.71,14.71,0,0,1,80.59,161C80.59,161.06,80.42,161.11,80.4,161Z" style="fill:#263238"></path><path d="M91.36,152.13c0,.19-.28.05-.24.24.17.81.79,5.79-.84,6.53-1.31.59-3-.76-3.46-1.54l-1.13-1.94.39,2.22a9.62,9.62,0,0,1,0,3A3.31,3.31,0,0,1,84.81,163a1.88,1.88,0,0,1-2.37-.12,5.8,5.8,0,0,1-1.53-2.41l-.9-2.51,0,2.65a8.64,8.64,0,0,1-.25,2.2,3.59,3.59,0,0,1-1,1.81,1.69,1.69,0,0,1-1.76.32,3.72,3.72,0,0,1-1.45-1.51,28.22,28.22,0,0,1-1.89-4.22c-.29-.73-.58-1.46-.9-2.17a5.74,5.74,0,0,0-1.28-2,6.15,6.15,0,0,1,1.08,2c.26.73.49,1.48.72,2.22A25.68,25.68,0,0,0,75,163.73a4.35,4.35,0,0,0,1.69,1.86,2.4,2.4,0,0,0,2.61-.38A4.42,4.42,0,0,0,80.62,163a9.55,9.55,0,0,0,.31-2.44l-.87.14a6.52,6.52,0,0,0,1.78,2.87,2.71,2.71,0,0,0,1.71.69,3.11,3.11,0,0,0,1.75-.53,4.18,4.18,0,0,0,1.67-3,9.83,9.83,0,0,0-.11-3.29l-.74.28c.6,1,2.33,2.68,4.48,2C93.27,158.5,91.72,153.09,91.36,152.13Z" style="fill:#263238"></path><path d="M91.28,152.09a5.41,5.41,0,0,0,1.34,1,1.29,1.29,0,0,0,1.29,0,2.63,2.63,0,0,0,.84-1.22c.19-.51.38-1.07.54-1.65a4.46,4.46,0,0,1,0,1.82,2.57,2.57,0,0,1-1,1.7,1.92,1.92,0,0,1-1.06.26,2,2,0,0,1-1-.39A2.9,2.9,0,0,1,91.28,152.09Z" style="fill:#263238"></path></g><g id="freepik--speech-bubble--inject-126"><path d="M401.58,189a18.76,18.76,0,0,1-20.6,16.7,18.56,18.56,0,0,1-10.73-4.84l-9.38,1.38,4.69-8.11a18.75,18.75,0,1,1,36-5.13Z" style="fill:#fff"></path><path d="M401.58,189a18.8,18.8,0,0,1-3.79,9.51,19.62,19.62,0,0,1-1.7,1.95,22.41,22.41,0,0,1-2,1.68,18.8,18.8,0,0,1-4.53,2.52,18.61,18.61,0,0,1-5,1.2,17.34,17.34,0,0,1-2.6.05,16.26,16.26,0,0,1-2.6-.27,19,19,0,0,1-9.28-4.58l.23.07-9.38,1.44-.68.1.35-.6,4.66-8.12,0,.32a19,19,0,0,1,1.16-16.72,19.17,19.17,0,0,1,5.87-6.25A19.1,19.1,0,0,1,388.73,169a19.26,19.26,0,0,1,7.24,4.43A18.87,18.87,0,0,1,401.58,189Zm0,0a18.8,18.8,0,0,0-5.69-15.4,19.07,19.07,0,0,0-7.24-4.27,18.7,18.7,0,0,0-8.34-.62,18.24,18.24,0,0,0-7.74,3.06,19.1,19.1,0,0,0-5.61,6.12A18.48,18.48,0,0,0,365.9,194l.06.17-.09.15-4.72,8.1-.33-.5,9.39-1.31.13,0,.09.08a18.46,18.46,0,0,0,9,4.63,15.6,15.6,0,0,0,2.54.31,18.37,18.37,0,0,0,2.57,0,18.73,18.73,0,0,0,5-1.11,17.34,17.34,0,0,0,4.52-2.44,19.45,19.45,0,0,0,2-1.65,21,21,0,0,0,1.71-1.94A18.89,18.89,0,0,0,401.58,189Z" style="fill:#263238"></path><path d="M373.27,187a1.73,1.73,0,1,0,1.72-1.73A1.72,1.72,0,0,0,373.27,187Z" style="fill:#263238"></path><path d="M381.55,187a1.73,1.73,0,1,0,1.72-1.73A1.72,1.72,0,0,0,381.55,187Z" style="fill:#263238"></path><path d="M389.83,187a1.73,1.73,0,1,0,1.72-1.73A1.72,1.72,0,0,0,389.83,187Z" style="fill:#263238"></path></g></svg>
